# 3ds Max Wavefront OBJ Exporter v0.99 - (c)2007 guruware
# File Created: 26.04.2021 14:34:26

mtllib dianaSobrePalito.mtl

#
# object polySurface41
#

v  12.4244 79.3858 -6.4719
v  11.8003 79.3858 -6.4719
v  11.8003 79.3858 -5.8424
v  12.4244 79.3858 -5.8424
v  11.4882 78.8453 -6.4719
v  11.4882 78.8453 -5.8424
v  11.8003 78.3048 -6.4719
v  11.8003 78.3048 -5.8424
v  12.4244 78.3048 -6.4719
v  12.4244 78.3048 -5.8424
v  12.7364 78.8453 -6.4719
v  12.7364 78.8453 -5.8424
v  11.9196 79.1792 -5.8424
v  12.3051 79.1792 -5.8424
v  11.7268 78.8453 -5.8424
v  11.9196 78.5114 -5.8424
v  12.3051 78.5114 -5.8424
v  12.4979 78.8453 -5.8424
v  11.9196 79.1792 -4.6432
v  12.3051 79.1792 -4.6432
v  11.7268 78.8453 -4.6432
v  11.9196 78.5114 -4.6432
v  12.3051 78.5114 -4.6432
v  12.4979 78.8453 -4.6432
v  10.2601 77.5267 -1.1266
v  13.5269 77.5267 -1.1266
v  13.5269 80.2134 -1.1266
v  10.2601 80.2134 -1.1266
v  10.2601 80.2134 -4.7623
v  13.5269 80.2134 -4.7623
v  13.5269 77.5267 -4.7623
v  10.2601 77.5267 -4.7623
v  10.6322 77.5267 -1.5196
v  13.1548 77.5267 -1.5196
v  13.1548 80.2134 -1.5196
v  10.6322 80.2134 -1.5196
v  10.6322 80.2134 -4.3693
v  13.1548 80.2134 -4.3693
v  13.1548 77.5267 -4.3693
v  10.6322 77.5267 -4.3693
v  15.1988 77.3579 1.0051
v  15.1988 77.3579 -1.0472
v  14.1133 79.4893 -1.0472
v  14.1133 79.4893 1.0051
v  17.8153 75.6096 -1.0472
v  17.8153 75.6096 1.0050
v  19.5636 72.9931 -1.0472
v  19.5636 72.9931 1.0050
v  12.1124 80.1033 -1.0472
v  12.1124 80.1033 1.0051
v  12.4968 78.9823 -1.0472
v  12.8813 78.3165 -1.0472
v  12.8813 78.3165 1.0051
v  12.4968 78.9823 1.0051
v  20.1776 69.9067 -1.0472
v  20.1776 69.9067 1.0050
v  10.1114 79.4893 -1.0472
v  10.1114 79.4893 1.0051
v  11.3435 78.3165 -1.0472
v  11.7279 78.9823 -1.0472
v  11.7279 78.9823 1.0051
v  11.3435 78.3165 1.0051
v  12.4968 77.6506 -1.0472
v  11.7279 77.6506 -1.0472
v  11.7279 77.6506 1.0051
v  12.4968 77.6506 1.0051
v  19.5636 66.8203 -1.0472
v  19.5636 66.8203 1.0050
v  9.0259 77.3579 -1.0472
v  9.0259 77.3579 1.0051
v  6.4094 75.6096 -1.0472
v  6.4094 75.6096 1.0050
v  17.8153 64.2037 -1.0472
v  17.8153 64.2037 1.0050
v  4.6611 72.9931 -1.0472
v  4.6611 72.9931 1.0050
v  15.1988 62.4554 -1.0472
v  15.1988 62.4554 1.0050
v  4.0471 69.9067 -1.0472
v  4.0471 69.9067 1.0050
v  12.1123 61.8415 -1.0472
v  12.1123 61.8415 1.0050
v  4.6611 66.8203 -1.0472
v  4.6611 66.8203 1.0050
v  9.0259 62.4554 -1.0472
v  9.0259 62.4554 1.0050
v  6.4094 64.2037 -1.0472
v  6.4094 64.2037 1.0050
v  12.2495 78.9624 -1.6399
v  11.9752 78.9624 -1.6399
v  11.9752 78.9624 0.9768
v  12.2495 78.9624 0.9768
v  11.8381 78.7250 -1.6399
v  11.8381 78.7250 0.9768
v  11.9752 78.4875 -1.6399
v  11.9752 78.4875 0.9768
v  12.2495 78.4875 -1.6399
v  12.2495 78.4875 0.9768
v  12.3866 78.7250 -1.6399
v  12.3866 78.7250 0.9768
v  11.9752 79.0139 1.1257
v  12.2495 79.0139 1.1257
v  11.8381 78.7878 1.1984
v  11.9752 78.5618 1.2711
v  12.2495 78.5618 1.2711
v  12.3866 78.7878 1.1984
v  11.9752 79.0438 1.1830
v  12.2495 79.0438 1.1830
v  11.8381 78.8798 1.3548
v  11.9752 78.7159 1.5266
v  12.2495 78.7159 1.5266
v  12.3866 78.8798 1.3548
v  11.9752 79.1019 1.2245
v  12.2495 79.1019 1.2245
v  11.8381 79.0443 1.4549
v  11.9752 78.9867 1.6853
v  12.2495 78.9867 1.6853
v  12.3866 79.0443 1.4549
v  11.9752 79.1679 1.2424
v  12.2495 79.1679 1.2424
v  11.8381 79.1679 1.4797
v  11.9752 79.1679 1.7170
v  12.2495 79.1679 1.7170
v  12.3866 79.1679 1.4797
v  12.0250 79.2325 1.3286
v  12.1996 79.2325 1.3286
v  11.9377 79.2325 1.4797
v  12.0250 79.2325 1.6308
v  12.1996 79.2325 1.6308
v  12.2870 79.2325 1.4797
# 130 vertices

vn 0.5000 0.8660 0.0000
vn -0.5000 0.8660 0.0000
vn -1.0000 0.0000 -0.0000
vn -0.5000 -0.8660 -0.0000
vn 0.5000 -0.8660 -0.0000
vn 1.0000 0.0000 -0.0000
vn 0.0000 0.0000 -1.0000
vn -0.0000 -0.0000 1.0000
vn 0.0000 -0.0000 1.0000
vn 0.0000 -1.0000 0.0000
vn 0.0000 1.0000 -0.0000
vn 0.0000 1.0000 0.0000
vn 0.7235 0.6903 0.0000
vn 0.6646 0.7472 0.0000
vn 0.7071 0.7071 0.0000
vn 0.9239 0.3827 0.0000
vn 1.0000 -0.0000 -0.0000
vn -0.6646 0.7472 0.0000
vn 0.9239 -0.3827 -0.0000
vn -0.7235 0.6903 0.0000
vn -0.7071 0.7071 0.0000
vn 0.7071 -0.7071 -0.0000
vn -0.9239 0.3827 0.0000
vn 0.3827 -0.9239 -0.0000
vn 0.0000 -1.0000 -0.0000
vn -0.9239 -0.3827 -0.0000
vn -0.3827 -0.9239 -0.0000
vn -0.7071 -0.7071 -0.0000
vn -0.0000 0.0000 -1.0000
vn -0.5068 0.8619 -0.0176
vn 0.5068 0.8619 -0.0176
vn -1.0000 0.0000 0.0000
vn -0.9999 -0.0142 0.0031
vn -0.4942 -0.8691 0.0209
vn 0.4942 -0.8691 0.0209
vn 1.0000 0.0000 0.0000
vn 0.9999 -0.0142 0.0031
vn -0.5824 0.7545 -0.3026
vn 0.5824 0.7545 -0.3026
vn -0.9861 -0.1517 0.0683
vn -0.4310 -0.8342 0.3440
vn 0.4310 -0.8342 0.3440
vn 0.9861 -0.1517 0.0683
vn -0.6629 0.5514 -0.5065
vn 0.6629 0.5514 -0.5066
vn -0.9698 -0.1700 0.1747
vn -0.4074 -0.6379 0.6536
vn 0.4074 -0.6379 0.6536
vn 0.9698 -0.1700 0.1747
vn -0.6324 0.3313 -0.7002
vn 0.6324 0.3313 -0.7002
vn -0.9764 -0.0877 0.1974
vn -0.4164 -0.3513 0.8386
vn 0.4164 -0.3513 0.8386
vn 0.9764 -0.0877 0.1974
vn -0.6088 0.1927 -0.7696
vn 0.6088 0.1927 -0.7696
vn -0.9819 -0.0272 0.1874
vn -0.4278 -0.1581 0.8899
vn 0.4278 -0.1581 0.8899
vn 0.9819 -0.0272 0.1874
vn 0.2721 0.8389 -0.4714
vn -0.2721 0.8389 -0.4714
vn -0.1495 0.9542 -0.2592
vn 0.1495 0.9542 -0.2592
vn -0.5441 0.8390 0.0000
vn -0.2992 0.9542 0.0000
vn -0.2721 0.8388 0.4715
vn -0.1495 0.9542 0.2592
vn 0.2721 0.8388 0.4715
vn 0.1495 0.9542 0.2592
vn 0.5441 0.8390 0.0000
vn 0.2992 0.9542 0.0000
# 73 vertex normals

vt 0.9067 0.8416 0.0000
vt 0.8973 0.8243 0.0000
vt 0.9194 0.8172 0.0000
vt 0.9257 0.8386 0.0000
vt 0.8889 0.8168 0.0000
vt 0.9065 0.7997 0.0000
vt 0.8593 0.8266 0.0000
vt 0.8917 0.7851 0.0000
vt 0.8761 0.8469 0.0000
vt 0.8945 0.8716 0.0000
vt 0.8706 0.8810 0.0000
vt 0.8980 0.8520 0.0000
vt 0.9171 0.8615 0.0000
vt 0.9262 0.8186 0.0000
vt 0.9292 0.8405 0.0000
vt 0.9169 0.7997 0.0000
vt 0.9090 0.7833 0.0000
vt 0.9048 0.8770 0.0000
vt 0.8915 0.8901 0.0000
vt 0.9211 0.8621 0.0000
vt 0.9810 0.8183 0.0000
vt 0.9817 0.8423 0.0000
vt 0.9775 0.7964 0.0000
vt 0.9736 0.7764 0.0000
vt 0.9710 0.8891 0.0000
vt 0.9640 0.9091 0.0000
vt 0.9781 0.8667 0.0000
vt 0.7370 0.8009 0.0000
vt 0.8479 0.7862 0.0000
vt 0.8323 0.9015 0.0000
vt 0.7447 0.8868 0.0000
vt 0.6318 0.8888 0.0000
vt 0.5341 0.8885 0.0000
vt 0.5259 0.8025 0.0000
vt 0.6259 0.8005 0.0000
vt 0.4262 0.7878 0.0000
vt 0.4094 0.9009 0.0000
vt 0.7329 0.7891 0.0000
vt 0.8268 0.7747 0.0000
vt 0.8142 0.9122 0.0000
vt 0.7376 0.8981 0.0000
vt 0.6318 0.9003 0.0000
vt 0.5355 0.9003 0.0000
vt 0.5307 0.7914 0.0000
vt 0.6281 0.7889 0.0000
vt 0.4441 0.7775 0.0000
vt 0.4302 0.9122 0.0000
vt 0.8964 0.1218 0.0000
vt 0.8963 0.1218 0.0000
vt 0.8962 0.1217 0.0000
vt 0.8923 0.5838 0.0000
vt 0.8015 0.6618 0.0000
vt 0.7666 0.6707 0.0000
vt 0.8929 0.6058 0.0000
vt 0.9559 0.4725 0.0000
vt 0.9609 0.4905 0.0000
vt 0.8923 0.1241 0.0000
vt 0.8905 0.1196 0.0000
vt 0.8960 0.1216 0.0000
vt 0.8960 0.1217 0.0000
vt 0.9749 0.3426 0.0000
vt 0.9812 0.3577 0.0000
vt 0.8964 0.1219 0.0000
vt 0.8965 0.1219 0.0000
vt 0.8966 0.1219 0.0000
vt 0.9018 0.1230 0.0000
vt 0.8980 0.1261 0.0000
vt 0.8968 0.1220 0.0000
vt 0.8954 0.1178 0.0000
vt 0.9002 0.1196 0.0000
vt 0.8971 0.1220 0.0000
vt 0.8966 0.1217 0.0000
vt 0.9440 0.2140 0.0000
vt 0.9501 0.2271 0.0000
vt 0.4853 0.6654 0.0000
vt 0.3939 0.5964 0.0000
vt 0.3973 0.6172 0.0000
vt 0.5482 0.6748 0.0000
vt 0.8664 0.1062 0.0000
vt 0.8720 0.1181 0.0000
vt 0.3233 0.4918 0.0000
vt 0.3243 0.5083 0.0000
vt 0.7533 0.0363 0.0000
vt 0.7581 0.0474 0.0000
vt 0.2954 0.3649 0.0000
vt 0.2958 0.3785 0.0000
vt 0.6220 0.0150 0.0000
vt 0.6260 0.0256 0.0000
vt 0.3169 0.2355 0.0000
vt 0.3177 0.2471 0.0000
vt 0.4929 0.0457 0.0000
vt 0.4958 0.0560 0.0000
vt 0.3859 0.1233 0.0000
vt 0.3877 0.1338 0.0000
vt 0.9081 0.1310 0.0000
vt 0.8931 0.1312 0.0000
vt 0.8796 0.1228 0.0000
vt 0.9201 0.1236 0.0000
vt 0.8738 0.1076 0.0000
vt 0.8893 0.0154 0.0000
vt 0.9105 0.0100 0.0000
vt 0.9511 0.0239 0.0000
vt 0.9645 0.0412 0.0000
vt 0.8614 0.0897 0.0000
vt 0.8567 0.0684 0.0000
vt 0.9578 0.1031 0.0000
vt 0.9409 0.1170 0.0000
vt 0.8603 0.0469 0.0000
vt 0.9681 0.0839 0.0000
vt 0.8717 0.0283 0.0000
vt 0.9705 0.0622 0.0000
vt 0.9322 0.0130 0.0000
vt 0.3779 0.9550 0.0000
vt 0.3776 0.9195 0.0000
vt 0.7214 0.9195 0.0000
vt 0.7246 0.9547 0.0000
vt 0.3771 0.8838 0.0000
vt 0.7115 0.8851 0.0000
vt 0.3768 0.8473 0.0000
vt 0.7055 0.8501 0.0000
vt 0.3771 0.8103 0.0000
vt 0.7062 0.8150 0.0000
vt 0.3782 0.7734 0.0000
vt 0.7142 0.7807 0.0000
vt 0.3797 0.7372 0.0000
vt 0.7251 0.7472 0.0000
vt 0.7466 0.9162 0.0000
vt 0.7497 0.9518 0.0000
vt 0.7385 0.8828 0.0000
vt 0.7328 0.8508 0.0000
vt 0.7341 0.8171 0.0000
vt 0.7423 0.7857 0.0000
vt 0.7548 0.7540 0.0000
vt 0.7571 0.9151 0.0000
vt 0.7596 0.9507 0.0000
vt 0.7598 0.8814 0.0000
vt 0.7611 0.8509 0.0000
vt 0.7629 0.8205 0.0000
vt 0.7642 0.7896 0.0000
vt 0.7667 0.7563 0.0000
vt 0.7684 0.9147 0.0000
vt 0.7704 0.9494 0.0000
vt 0.7834 0.8828 0.0000
vt 0.7932 0.8523 0.0000
vt 0.7943 0.8224 0.0000
vt 0.7881 0.7908 0.0000
vt 0.7799 0.7572 0.0000
vt 0.7786 0.9145 0.0000
vt 0.7805 0.9481 0.0000
vt 0.7990 0.8846 0.0000
vt 0.8136 0.8527 0.0000
vt 0.8142 0.8231 0.0000
vt 0.8037 0.7911 0.0000
vt 0.7918 0.7577 0.0000
vt 0.7944 0.9147 0.0000
vt 0.7955 0.9385 0.0000
vt 0.8124 0.8874 0.0000
vt 0.8248 0.8536 0.0000
vt 0.8252 0.8247 0.0000
vt 0.8165 0.7919 0.0000
vt 0.8095 0.7656 0.0000
vt 0.8450 0.8629 0.0000
vt 0.8441 0.8140 0.0000
vt 0.8643 0.8497 0.0000
vt 0.8638 0.8259 0.0000
# 165 texture coords

o polySurface41
g polySurface41
usemtl Material__26
s off
f 1/1/1 2/2/2 3/3/2 
f 3/3/2 4/4/1 1/1/1 
f 2/2/2 5/5/3 6/6/3 
f 6/6/3 3/3/2 2/2/2 
f 5/5/3 7/7/4 8/8/4 
f 8/8/4 6/6/3 5/5/3 
f 7/7/4 9/9/5 10/10/5 
f 10/10/5 8/11/4 7/7/4 
f 9/9/5 11/12/6 12/13/6 
f 12/13/6 10/10/5 9/9/5 
f 11/12/6 1/1/1 4/4/1 
f 4/4/1 12/13/6 11/12/6 
f 1/1/7 11/12/7 9/9/7 
f 1/1/7 9/9/7 7/7/7 
f 1/1/7 7/7/7 5/5/7 
f 1/1/7 5/5/7 2/2/7 
f 4/4/8 3/3/9 13/14/9 
f 13/14/9 14/15/8 4/4/8 
f 3/3/9 6/6/9 15/16/9 
f 15/16/9 13/14/9 3/3/9 
f 6/6/9 8/8/9 16/17/9 
f 16/17/9 15/16/9 6/6/9 
f 8/11/9 10/10/8 17/18/8 
f 17/18/8 16/19/9 8/11/9 
f 10/10/8 12/13/8 18/20/8 
f 18/20/8 17/18/8 10/10/8 
f 12/13/8 4/4/8 14/15/8 
f 14/15/8 18/20/8 12/13/8 
f 14/15/1 13/14/2 19/21/2 
f 19/21/2 20/22/1 14/15/1 
f 13/14/2 15/16/3 21/23/3 
f 21/23/3 19/21/2 13/14/2 
f 15/16/3 16/17/4 22/24/4 
f 22/24/4 21/23/3 15/16/3 
f 16/19/4 17/18/5 23/25/5 
f 23/25/5 22/26/4 16/19/4 
f 17/18/5 18/20/6 24/27/6 
f 24/27/6 23/25/5 17/18/5 
f 18/20/6 14/15/1 20/22/1 
f 20/22/1 24/27/6 18/20/6 
f 25/28/9 26/29/9 27/30/9 
f 27/30/9 28/31/9 25/28/9 
f 29/32/7 30/33/7 31/34/7 
f 31/34/7 32/35/7 29/32/7 
f 26/36/6 31/34/6 30/33/6 
f 30/33/6 27/37/6 26/36/6 
f 32/35/3 25/28/3 28/31/3 
f 28/31/3 29/32/3 32/35/3 
f 33/38/10 34/39/10 26/29/10 
f 26/29/10 25/28/10 33/38/10 
f 35/40/11 36/41/11 28/31/11 
f 28/31/11 27/30/11 35/40/11 
f 37/42/12 38/43/12 30/33/12 
f 30/33/12 29/32/12 37/42/12 
f 39/44/10 40/45/10 32/35/10 
f 32/35/10 31/34/10 39/44/10 
f 34/46/10 39/44/10 31/34/10 
f 31/34/10 26/36/10 34/46/10 
f 38/43/12 35/47/11 27/37/11 
f 27/37/11 30/33/12 38/43/12 
f 40/45/10 33/38/10 25/28/10 
f 25/28/10 32/35/10 40/45/10 
f 36/41/11 37/42/12 29/32/12 
f 29/32/12 28/31/11 36/41/11 
f 41/48/13 42/49/13 43/49/14 
f 43/49/14 44/50/14 41/48/13 
f 45/51/15 42/52/13 41/53/13 
f 41/53/13 46/54/15 45/51/15 
f 47/55/16 45/51/15 46/54/15 
f 46/54/15 48/56/16 47/55/16 
f 43/49/14 49/48/12 50/48/12 
f 50/48/12 44/50/14 43/49/14 
f 51/57/4 52/58/3 53/59/3 
f 53/59/3 54/60/4 51/57/4 
f 55/61/17 47/55/16 48/56/16 
f 48/56/16 56/62/17 55/61/17 
f 49/63/12 57/64/18 58/65/18 
f 58/65/18 50/48/12 49/63/12 
f 59/66/6 60/67/5 61/64/5 
f 61/64/5 62/68/6 59/66/6 
f 63/69/2 64/70/1 65/71/1 
f 65/71/1 66/72/2 63/69/2 
f 67/73/19 55/61/17 56/62/17 
f 56/62/17 68/74/19 67/73/19 
f 69/64/20 70/65/20 58/65/18 
f 58/65/18 57/64/18 69/64/20 
f 69/75/20 71/76/21 72/77/21 
f 72/77/21 70/78/20 69/75/20 
f 73/79/22 67/73/19 68/74/19 
f 68/74/19 74/80/22 73/79/22 
f 71/76/21 75/81/23 76/82/23 
f 76/82/23 72/77/21 71/76/21 
f 77/83/24 73/79/22 74/80/22 
f 74/80/22 78/84/24 77/83/24 
f 75/81/23 79/85/3 80/86/3 
f 80/86/3 76/82/23 75/81/23 
f 81/87/25 77/83/24 78/84/24 
f 78/84/24 82/88/25 81/87/25 
f 79/85/3 83/89/26 84/90/26 
f 84/90/26 80/86/3 79/85/3 
f 85/91/27 81/87/25 82/88/25 
f 82/88/25 86/92/27 85/91/27 
f 83/89/26 87/93/28 88/94/28 
f 88/94/28 84/90/26 83/89/26 
f 87/93/28 85/91/27 86/92/27 
f 86/92/27 88/94/28 87/93/28 
f 52/58/3 63/69/2 66/72/2 
f 66/72/2 53/59/3 52/58/3 
f 64/70/1 59/66/6 62/68/6 
f 62/68/6 65/71/1 64/70/1 
f 50/48/9 58/65/9 62/68/9 
f 62/68/9 61/64/9 50/48/9 
f 44/50/8 50/48/9 54/60/9 
f 54/60/9 53/59/8 44/50/8 
f 51/57/4 54/60/4 61/64/5 
f 61/64/5 60/67/5 51/57/4 
f 41/48/8 44/50/8 53/59/8 
f 53/59/8 66/72/8 41/48/8 
f 58/65/9 70/65/9 65/71/9 
f 65/71/9 62/68/9 58/65/9 
f 78/84/9 74/80/9 88/94/9 
f 88/94/9 86/92/9 78/84/9 
f 74/80/9 68/74/9 84/90/9 
f 84/90/9 88/94/9 74/80/9 
f 68/74/9 56/62/8 80/86/8 
f 80/86/8 84/90/9 68/74/9 
f 56/62/8 48/56/8 76/82/8 
f 76/82/8 80/86/8 56/62/8 
f 48/56/8 46/54/9 72/77/9 
f 72/77/9 76/82/8 48/56/8 
f 46/54/9 41/53/8 70/78/9 
f 70/78/9 72/77/9 46/54/9 
f 66/72/8 65/71/9 70/65/9 
f 70/65/9 41/48/8 66/72/8 
f 82/88/9 78/84/9 86/92/9 
f 57/95/7 49/96/7 60/67/7 
f 60/67/7 59/66/7 57/95/7 
f 49/96/7 43/97/29 52/58/29 
f 52/58/29 51/57/7 49/96/7 
f 69/98/7 57/95/7 59/66/7 
f 59/66/7 64/70/29 69/98/7 
f 43/97/29 42/99/7 63/69/29 
f 63/69/29 52/58/29 43/97/29 
f 73/100/29 77/101/29 85/102/29 
f 85/102/29 87/103/29 73/100/29 
f 45/104/7 47/105/7 75/106/7 
f 75/106/7 71/107/7 45/104/7 
f 47/105/7 55/108/7 79/109/7 
f 79/109/7 75/106/7 47/105/7 
f 55/108/7 67/110/7 83/111/7 
f 83/111/7 79/109/7 55/108/7 
f 67/110/7 73/100/29 87/103/29 
f 87/103/29 83/111/7 67/110/7 
f 42/99/7 45/104/7 71/107/7 
f 71/107/7 69/98/7 42/99/7 
f 64/70/29 63/69/29 42/99/7 
f 42/99/7 69/98/7 64/70/29 
f 77/101/29 81/112/7 85/102/29 
f 61/64/9 54/60/9 50/48/9 
f 60/67/7 49/96/7 51/57/7 
f 89/113/1 90/114/2 91/115/30 
f 91/115/30 92/116/31 89/113/1 
f 90/114/2 93/117/32 94/118/33 
f 94/118/33 91/115/30 90/114/2 
f 93/117/32 95/119/4 96/120/34 
f 96/120/34 94/118/33 93/117/32 
f 95/119/4 97/121/5 98/122/35 
f 98/122/35 96/120/34 95/119/4 
f 97/121/5 99/123/36 100/124/37 
f 100/124/37 98/122/35 97/121/5 
f 99/123/36 89/125/1 92/126/31 
f 92/126/31 100/124/37 99/123/36 
f 92/116/31 91/115/30 101/127/38 
f 101/127/38 102/128/39 92/116/31 
f 91/115/30 94/118/33 103/129/40 
f 103/129/40 101/127/38 91/115/30 
f 94/118/33 96/120/34 104/130/41 
f 104/130/41 103/129/40 94/118/33 
f 96/120/34 98/122/35 105/131/42 
f 105/131/42 104/130/41 96/120/34 
f 98/122/35 100/124/37 106/132/43 
f 106/132/43 105/131/42 98/122/35 
f 100/124/37 92/126/31 102/133/39 
f 102/133/39 106/132/43 100/124/37 
f 102/128/39 101/127/38 107/134/44 
f 107/134/44 108/135/45 102/128/39 
f 101/127/38 103/129/40 109/136/46 
f 109/136/46 107/134/44 101/127/38 
f 103/129/40 104/130/41 110/137/47 
f 110/137/47 109/136/46 103/129/40 
f 104/130/41 105/131/42 111/138/48 
f 111/138/48 110/137/47 104/130/41 
f 105/131/42 106/132/43 112/139/49 
f 112/139/49 111/138/48 105/131/42 
f 106/132/43 102/133/39 108/140/45 
f 108/140/45 112/139/49 106/132/43 
f 108/135/45 107/134/44 113/141/50 
f 113/141/50 114/142/51 108/135/45 
f 107/134/44 109/136/46 115/143/52 
f 115/143/52 113/141/50 107/134/44 
f 109/136/46 110/137/47 116/144/53 
f 116/144/53 115/143/52 109/136/46 
f 110/137/47 111/138/48 117/145/54 
f 117/145/54 116/144/53 110/137/47 
f 111/138/48 112/139/49 118/146/55 
f 118/146/55 117/145/54 111/138/48 
f 112/139/49 108/140/45 114/147/51 
f 114/147/51 118/146/55 112/139/49 
f 114/142/51 113/141/50 119/148/56 
f 119/148/56 120/149/57 114/142/51 
f 113/141/50 115/143/52 121/150/58 
f 121/150/58 119/148/56 113/141/50 
f 115/143/52 116/144/53 122/151/59 
f 122/151/59 121/150/58 115/143/52 
f 116/144/53 117/145/54 123/152/60 
f 123/152/60 122/151/59 116/144/53 
f 117/145/54 118/146/55 124/153/61 
f 124/153/61 123/152/60 117/145/54 
f 118/146/55 114/147/51 120/154/57 
f 120/154/57 124/153/61 118/146/55 
f 120/149/62 119/148/63 125/155/64 
f 125/155/64 126/156/65 120/149/62 
f 119/148/63 121/150/66 127/157/67 
f 127/157/67 125/155/64 119/148/63 
f 121/150/66 122/151/68 128/158/69 
f 128/158/69 127/157/67 121/150/66 
f 122/151/68 123/152/70 129/159/71 
f 129/159/71 128/158/69 122/151/68 
f 123/152/70 124/153/72 130/160/73 
f 130/160/73 129/159/71 123/152/70 
f 124/153/72 120/154/62 126/161/65 
f 126/161/65 130/160/73 124/153/72 
f 127/162/67 128/158/69 129/159/71 
f 129/159/71 130/163/73 127/162/67 
f 125/164/64 127/162/67 130/163/73 
f 130/163/73 126/165/65 125/164/64 
# 236 faces

#
# object polySurface46
#

v  -4.9765 -0.0947 -15.5747
v  -4.9765 -0.0947 9.6889
v  -3.6074 4.0400 9.6889
v  -3.6074 4.0400 -15.5747
v  -4.2034 -0.3507 -15.5747
v  -2.8343 3.7840 -15.5747
v  -2.8343 3.7840 9.6889
v  -4.2034 -0.3507 9.6889
v  28.7580 -0.0947 9.6889
v  28.7580 -0.0947 -15.5747
v  27.3889 4.0400 -15.5747
v  27.3889 4.0400 9.6889
v  27.9849 -0.3507 9.6889
v  26.6158 3.7840 9.6889
v  26.6158 3.7840 -15.5747
v  27.9849 -0.3507 -15.5747
v  10.2523 3.2876 -1.0924
v  13.5292 3.2876 -1.0924
v  13.5292 5.4729 -1.0924
v  10.2523 5.4729 -1.0924
v  13.5292 5.4729 -4.7934
v  10.2523 5.4729 -4.7934
v  13.5292 3.2876 -4.7934
v  10.2523 3.2876 -4.7934
v  10.2523 2.5422 -1.0924
v  10.2523 2.5422 -4.7934
v  13.5292 2.5422 -4.7934
v  13.5292 2.5422 -1.0924
v  28.6623 2.5421 -1.0924
v  28.6623 2.5421 -4.7934
v  28.6623 3.2876 -4.7934
v  28.6623 3.2876 -1.0924
v  -4.8808 2.5422 -4.7934
v  -4.8808 2.5422 -1.0924
v  -4.8808 3.2877 -1.0924
v  -4.8808 3.2877 -4.7934
v  10.5913 5.4523 -1.4753
v  13.1902 5.4523 -1.4753
v  13.1902 85.0927 -1.4753
v  10.5913 85.0927 -1.4753
v  13.1902 85.0927 -4.4105
v  10.5913 85.0927 -4.4105
v  13.1902 5.4523 -4.4105
v  10.5913 5.4523 -4.4105
# 44 vertices

vn -0.9493 0.3143 0.0000
vn 0.9493 -0.3143 -0.0000
vn -0.3143 -0.9493 -0.0000
vn 0.0000 -0.0000 1.0000
vn 0.3144 0.9493 0.0000
vn 0.0000 0.0000 -1.0000
vn 0.9493 0.3143 0.0000
vn -0.9493 -0.3143 -0.0000
vn 0.3143 -0.9493 -0.0000
vn -0.0000 0.0000 -1.0000
vn -0.3144 0.9493 0.0000
vn -0.0000 0.0000 1.0000
vn 0.0000 0.0000 1.0000
vn 0.0000 1.0000 0.0000
vn 1.0000 0.0000 0.0000
vn -1.0000 0.0000 -0.0000
vn -0.0000 -1.0000 -0.0000
vn 1.0000 -0.0000 -0.0000
vn 1.0000 0.0000 -0.0000
# 19 vertex normals

vt 0.9317 0.9592 0.0000
vt 0.6446 0.9591 0.0000
vt 0.6446 0.9096 0.0000
vt 0.9317 0.9096 0.0000
vt 0.9318 0.8509 0.0000
vt 0.9317 0.9004 0.0000
vt 0.6446 0.9004 0.0000
vt 0.6446 0.8509 0.0000
vt 0.3079 0.9003 0.0000
vt 0.5951 0.9004 0.0000
vt 0.5951 0.9096 0.0000
vt 0.3079 0.9096 0.0000
vt 0.9813 0.9004 0.0000
vt 0.9813 0.9097 0.0000
vt 0.6446 0.7426 0.0000
vt 0.9317 0.7425 0.0000
vt 0.9317 0.7920 0.0000
vt 0.6446 0.7921 0.0000
vt 0.6446 0.8014 0.0000
vt 0.9317 0.8013 0.0000
vt 0.9318 0.8508 0.0000
vt 0.5951 0.8014 0.0000
vt 0.3079 0.8014 0.0000
vt 0.3079 0.7922 0.0000
vt 0.5951 0.7921 0.0000
vt 0.9813 0.8013 0.0000
vt 0.9813 0.7920 0.0000
vt 0.5296 0.8891 0.0000
vt 0.5834 0.8861 0.0000
vt 0.5711 0.9004 0.0000
vt 0.5445 0.8969 0.0000
vt 0.5681 0.9362 0.0000
vt 0.5458 0.9309 0.0000
vt 0.5388 0.8138 0.0000
vt 0.5692 0.8124 0.0000
vt 0.5699 0.8342 0.0000
vt 0.5391 0.8399 0.0000
vt 0.5826 0.9293 0.0000
vt 0.5357 0.9304 0.0000
vt 0.5263 0.8819 0.0000
vt 0.5436 0.8482 0.0000
vt 0.5680 0.8419 0.0000
vt 0.5854 0.8782 0.0000
vt 0.7566 0.9350 0.0000
vt 0.7428 0.9684 0.0000
vt 0.7356 0.9659 0.0000
vt 0.7498 0.9294 0.0000
vt 0.3744 0.9835 0.0000
vt 0.3616 0.9479 0.0000
vt 0.3681 0.9432 0.0000
vt 0.3825 0.9813 0.0000
vt 0.7102 0.7572 0.0000
vt 0.7297 0.7926 0.0000
vt 0.5839 0.9375 0.0000
vt 0.7339 0.9738 0.0000
vt 0.7537 0.9223 0.0000
vt 0.3990 0.7648 0.0000
vt 0.4291 0.7395 0.0000
vt 0.3646 0.9358 0.0000
vt 0.5358 0.9386 0.0000
vt 0.3853 0.9890 0.0000
vt 0.0746 0.0059 0.0000
vt 0.1070 0.0059 0.0000
vt 0.1072 0.9985 0.0000
vt 0.0749 0.9985 0.0000
vt 0.0319 0.2870 0.0000
vt 0.0319 0.2187 0.0000
vt 0.1090 0.2187 0.0000
vt 0.1090 0.2870 0.0000
vt 0.1762 0.9985 0.0000
vt 0.1438 0.9985 0.0000
vt 0.1436 0.0059 0.0000
vt 0.1760 0.0059 0.0000
vt 0.0381 0.0059 0.0000
vt 0.0383 0.9985 0.0000
# 75 texture coords

o polySurface46
g polySurface46
usemtl Material__25
s off
f 131/166/74 132/167/74 133/168/74 
f 133/168/74 134/169/74 131/166/74 
f 135/170/75 136/171/75 137/172/75 
f 137/172/75 138/173/75 135/170/75 
f 135/174/76 138/175/76 132/176/76 
f 132/176/76 131/177/76 135/174/76 
f 138/175/77 137/172/77 133/168/77 
f 133/168/77 132/176/77 138/175/77 
f 137/172/78 136/171/78 134/169/78 
f 134/169/78 133/168/78 137/172/78 
f 136/171/79 135/178/79 131/179/79 
f 131/179/79 134/169/79 136/171/79 
f 139/180/80 140/181/80 141/182/80 
f 141/182/80 142/183/80 139/180/80 
f 143/173/81 144/184/81 145/185/81 
f 145/185/81 146/186/81 143/173/81 
f 143/187/82 146/188/82 140/189/82 
f 140/189/82 139/190/82 143/187/82 
f 146/191/83 145/185/83 141/182/83 
f 141/182/83 140/192/83 146/191/83 
f 145/185/84 144/184/84 142/183/84 
f 142/183/84 141/182/84 145/185/84 
f 144/184/85 143/187/85 139/190/85 
f 139/190/85 142/183/85 144/184/85 
f 147/193/85 148/194/86 149/195/77 
f 149/195/77 150/196/77 147/193/85 
f 150/196/87 149/195/87 151/197/87 
f 151/197/87 152/198/87 150/196/87 
f 152/199/79 151/200/79 153/201/79 
f 153/201/79 154/202/79 152/199/79 
f 148/194/88 153/203/88 151/197/88 
f 151/197/88 149/195/88 148/194/88 
f 154/204/89 147/193/89 150/196/89 
f 150/196/89 152/198/89 154/204/89 
f 155/205/90 156/206/90 157/207/90 
f 157/207/90 158/208/90 155/205/90 
f 155/205/85 158/208/86 148/194/86 
f 148/194/86 147/193/85 155/205/85 
f 159/209/91 160/210/91 161/211/91 
f 161/211/91 162/212/91 159/209/91 
f 154/202/79 153/201/79 157/207/79 
f 157/207/79 156/206/79 154/202/79 
f 163/213/89 164/214/89 165/215/89 
f 165/215/89 166/216/89 163/213/89 
f 158/208/90 157/207/90 160/217/90 
f 160/217/90 159/218/90 158/208/90 
f 157/219/79 153/203/79 161/211/79 
f 161/211/79 160/220/79 157/219/79 
f 153/203/87 148/194/87 162/212/87 
f 162/212/87 161/211/87 153/203/87 
f 148/194/86 158/208/86 159/221/86 
f 159/221/86 162/212/86 148/194/86 
f 156/206/90 155/205/90 164/222/90 
f 164/222/90 163/223/90 156/206/90 
f 155/205/85 147/193/85 165/215/85 
f 165/215/85 164/224/85 155/205/85 
f 147/193/87 154/204/87 166/216/87 
f 166/216/87 165/215/87 147/193/87 
f 154/204/79 156/225/79 163/226/79 
f 163/226/79 166/216/79 154/204/79 
f 167/227/77 168/228/77 169/229/77 
f 169/229/77 170/230/77 167/227/77 
f 170/231/87 169/232/87 171/233/87 
f 171/233/87 172/234/87 170/231/87 
f 172/235/79 171/236/79 173/237/79 
f 173/237/79 174/238/79 172/235/79 
f 168/228/92 173/237/92 171/236/92 
f 171/236/92 169/229/92 168/228/92 
f 174/239/89 167/227/89 170/230/89 
f 170/230/89 172/240/89 174/239/89 
# 70 faces

