# This file uses centimeters as units for non-parametric coordinates.

mtllib pollito.mtl
g skinCluster1Set tweakSet1
v -12.910210 -0.000000 12.518602
v -13.222853 4.742988 18.010784
v -17.954903 4.742988 12.848537
v 17.954903 4.742988 12.848537
v 13.222853 4.742988 18.010784
v 12.910210 -0.000000 12.518602
v -14.362965 29.882141 9.654297
v -10.581830 29.890146 13.642149
v -10.162268 34.547359 9.231999
v 10.162268 34.547359 9.231999
v 10.581830 29.890146 13.642149
v 14.362965 29.882141 9.654297
v -14.362965 29.882141 -9.783585
v -10.162268 34.547359 -9.361289
v -10.581830 29.890146 -13.856082
v 10.581830 29.890146 -13.856082
v 10.162268 34.547359 -9.361289
v 14.362965 29.882141 -9.783585
v -17.954903 4.742988 -12.354118
v -13.224566 4.742988 -17.442356
v -12.910210 -0.000000 -12.024062
v 12.910210 -0.000000 -12.024062
v 13.224566 4.742988 -17.442356
v 17.954903 4.742988 -12.354118
v -12.921029 22.775255 -17.037725
v -13.942075 12.210077 -18.419323
v -17.526173 22.775255 -12.053059
v -18.921436 12.210077 -13.047555
v -18.950735 13.796949 13.550772
v -17.373384 22.775255 12.466336
v -12.821541 22.775255 17.475208
v -13.964463 13.796949 19.232134
v 12.821541 22.775255 17.475208
v 13.964463 13.796949 19.232134
v 17.373384 22.775255 12.466336
v 18.950735 13.796949 13.550772
v 18.921436 12.210077 -13.047555
v 17.526173 22.775255 -12.053059
v 12.920668 22.775255 -17.037241
v 13.940257 12.210077 -18.416891
v -0.000000 31.176512 15.525097
v -0.000000 36.025486 10.623958
v -0.000000 36.025486 -10.780834
v -0.000000 31.176512 -15.769975
v 0.000000 2.502502 -19.179276
v -0.000000 -0.925653 -13.332998
v -0.000000 -0.925653 13.813175
v 0.000000 4.067904 20.127201
v 0.000000 16.348822 -20.145445
v -0.000000 22.775255 -19.140642
v -0.000000 22.775255 20.136639
v 10.816109 35.538029 0.052690
v 15.406875 30.698521 0.052690
v 19.092995 3.985682 -0.011086
v 13.632752 -1.038392 -0.013480
v -13.632752 -1.038392 -0.013480
v -19.092995 3.985682 -0.011086
v -15.406875 30.698521 0.052690
v -10.816109 35.538029 0.052690
v -20.303476 12.210077 -0.006688
v -18.863863 22.775255 0.011855
v 18.863863 22.775255 0.011855
v 20.303476 12.210077 -0.006688
v -0.000000 38.002132 0.052690
v -0.000000 -2.046637 -0.013480
v 6.967729 39.232300 17.392838
v 0.116710 38.285416 16.247581
v -4.065341 35.236431 12.050986
v -4.075969 33.461159 13.890786
v 8.940528 11.265808 -21.263216
v 8.543607 6.442409 -22.536860
v -8.362337 6.506367 -22.520981
v -8.543400 11.147563 -21.307129
v 0.000000 12.466290 -20.720911
v 0.000000 4.514196 -22.269394
v 9.847893 12.587285 -26.387444
v 10.556635 9.138528 -27.467863
v -10.804663 9.137737 -27.599445
v -10.094573 12.452079 -26.249992
v 0.000000 13.773114 -28.831858
v 0.000000 10.178971 -30.699377
v 3.902488 11.397966 -25.290682
v 3.958738 7.674691 -26.152069
v -4.070942 7.652691 -26.083504
v -3.868242 11.360903 -25.266735
v 0.000000 9.076300 20.629908
v 0.000000 19.450966 20.566698
v -5.873381 13.591762 20.306370
v 5.873381 13.591762 20.306370
v 0.000000 14.724941 28.327803
v 3.287640 23.623541 21.129004
v 3.388654 19.447330 21.682055
v 7.493926 23.693085 20.885880
v 7.594941 19.516872 21.438931
v 7.262106 23.135202 16.715527
v 7.363120 18.958996 17.268578
v 3.055819 23.065659 16.958652
v 3.156835 18.889448 17.511702
v 8.096439 24.157150 18.661371
v 5.237084 18.095755 16.757114
v 2.329657 20.867752 16.547915
v 5.100717 23.733635 16.010496
v 2.554323 18.425383 19.736210
v 2.417952 24.063267 18.989592
v 2.642618 21.620892 22.177885
v 5.550045 18.848896 22.387087
v 8.321105 21.714781 21.849667
v 5.413677 24.486776 21.640469
v 8.232809 18.519270 19.407990
v 8.008143 20.961639 16.219696
v 5.534023 21.793360 22.952106
v 9.111038 21.353857 18.979979
v 5.116743 20.789171 15.445475
v 1.539723 21.228674 19.417603
v 5.416294 17.532677 19.696535
v 5.234467 25.049854 18.701044
v -3.622200 19.392437 21.739443
v -3.415950 23.662075 21.174021
v -7.922584 19.565439 21.477179
v -7.716336 23.835075 20.911757
v -7.685575 18.988977 17.210615
v -7.479327 23.258610 16.645193
v -3.385187 18.815971 17.472878
v -3.178936 23.085609 16.907455
v -8.592741 18.560297 19.396952
v -5.251562 23.818415 15.930729
v -2.488020 20.819632 16.489418
v -5.530001 18.054409 16.694050
v -2.508783 24.090752 18.987688
v -2.787220 18.326740 19.751007
v -2.807980 21.597860 22.249275
v -5.571525 24.596643 21.690586
v -8.613502 21.831417 21.895220
v -5.849962 18.832634 22.453907
v -8.314304 24.324306 18.633631
v -8.293540 21.053188 16.135363
v -5.764070 21.844343 23.032227
v -9.421107 21.481230 18.956282
v -5.337452 20.806705 15.352412
v -1.680413 21.169823 19.428356
v -5.365136 25.168198 18.683437
v -5.736383 17.482851 19.701199
vt 0.454065 0.648524
vt 0.456373 0.662081
vt 0.454343 0.662137
vt 0.454343 0.660937
vt 0.456373 0.660993
vt 0.454065 0.638427
vt 0.436010 0.849156
vt 0.420929 0.849096
vt 0.436315 0.866260
vt 0.436315 0.857279
vt 0.434195 0.848022
vt 0.436010 0.847962
vt 0.450409 0.849158
vt 0.450110 0.866266
vt 0.452227 0.849097
vt 0.452227 0.848022
vt 0.450110 0.857273
vt 0.450409 0.847961
vt 0.438253 0.662138
vt 0.436221 0.662082
vt 0.438526 0.648530
vt 0.438526 0.638421
vt 0.436221 0.660993
vt 0.438253 0.660936
vt 0.388627 0.784042
vt 0.388272 0.719487
vt 0.390585 0.719487
vt 0.390751 0.784042
vt 0.407483 0.784042
vt 0.407767 0.719487
vt 0.409464 0.719487
vt 0.409607 0.784042
vt 0.412293 0.784042
vt 0.411938 0.719487
vt 0.414259 0.719487
vt 0.414417 0.784042
vt 0.431149 0.784042
vt 0.431433 0.719487
vt 0.433432 0.719487
vt 0.433273 0.784042
vt 0.408133 0.848749
vt 0.406316 0.848749
vt 0.415584 0.848749
vt 0.413767 0.848749
vt 0.391918 0.848749
vt 0.390101 0.848749
vt 0.431799 0.848749
vt 0.429982 0.848749
vt 0.389160 0.670091
vt 0.393144 0.670091
vt 0.401869 0.670091
vt 0.407915 0.670091
vt 0.413331 0.670091
vt 0.417086 0.670091
vt 0.427203 0.670091
vt 0.429202 0.670091
vt 0.462959 0.848749
vt 0.462959 0.784875
vt 0.419730 0.848559
vt 0.435320 0.861770
vt 0.451125 0.861770
vt 0.453448 0.848559
vt 0.443571 0.848749
vt 0.443571 0.784875
vt 0.442780 0.670091
vt 0.443537 0.719487
vt 0.435234 0.661537
vt 0.437697 0.643475
vt 0.454874 0.643475
vt 0.457337 0.661537
vt 0.462809 0.670091
vt 0.435074 0.784875
vt 0.435200 0.719487
vt 0.452352 0.719487
vt 0.452067 0.784875
vt 0.454545 0.784875
vt 0.454589 0.719487
vt 0.471740 0.719487
vt 0.471374 0.784875
vt 0.455644 0.848749
vt 0.450886 0.848749
vt 0.436256 0.848749
vt 0.470274 0.848749
vt 0.450542 0.670091
vt 0.456896 0.670091
vt 0.470526 0.670091
vt 0.438709 0.670091
vt 0.443360 0.857320
vt 0.443360 0.884565
vt 0.443358 0.847996
vt 0.422930 0.848749
vt 0.422929 0.784042
vt 0.422419 0.670091
vt 0.422886 0.719487
vt 0.446150 0.660966
vt 0.446148 0.638480
vt 0.446148 0.628886
vt 0.446148 0.648470
vt 0.446150 0.662108
vt 0.398693 0.670091
vt 0.398930 0.719487
vt 0.398970 0.848749
vt 0.398972 0.784042
vt 0.443358 0.849122
vt 0.443360 0.866219
vt 0.434753 0.949282
vt 0.434750 0.949795
vt 0.435393 0.859833
vt 0.421265 0.852886
vt 0.440617 0.780022
vt 0.440725 0.591247
vt 0.448163 0.591247
vt 0.447037 0.780963
vt 0.443736 0.709525
vt 0.443207 0.679490
vt 0.441977 0.900506
vt 0.442040 0.575695
vt 0.446637 0.687000
vt 0.445898 0.901215
vt 0.444023 0.896428
vt 0.443732 0.688066
vt 0.443122 0.774037
vt 0.442941 0.594452
vt 0.445279 0.594445
vt 0.444854 0.774363
vt 0.314835 0.645276
vt 0.315052 0.896295
vt 0.302983 0.716497
vt 0.327713 0.802015
vt 0.314930 0.802969
vt 0.462942 0.752181
vt 0.458757 0.719487
vt 0.467333 0.719487
vt 0.462867 0.694789
vt 0.314930 0.717451
vt 0.302983 0.802015
vt 0.327713 0.716497
vt 0.773370 0.871796
vt 0.773102 0.791942
vt 0.778497 0.791942
vt 0.778497 0.871796
vt 0.773370 0.729493
vt 0.778497 0.729493
vt 0.783623 0.729493
vt 0.783891 0.791942
vt 0.783624 0.871796
vt 0.789286 0.791942
vt 0.789287 0.871796
vt 0.789285 0.729493
vt 0.794681 0.729493
vt 0.794681 0.791942
vt 0.794681 0.871796
vt 0.800076 0.791942
vt 0.800076 0.871796
vt 0.800076 0.729493
vt 0.804668 0.729493
vt 0.806274 0.791942
vt 0.804667 0.871796
vt 0.763116 0.871796
vt 0.761509 0.791942
vt 0.767707 0.791942
vt 0.767707 0.871796
vt 0.763116 0.729493
vt 0.767707 0.729493
vt 0.775010 0.730416
vt 0.773937 0.729474
vt 0.780136 0.691780
vt 0.780137 0.730371
vt 0.775543 0.728710
vt 0.780134 0.728442
vt 0.784726 0.728709
vt 0.786334 0.729473
vt 0.785263 0.730416
vt 0.773912 0.872688
vt 0.772302 0.872041
vt 0.778500 0.910220
vt 0.778504 0.872914
vt 0.773370 0.871243
vt 0.778497 0.871281
vt 0.783624 0.871243
vt 0.784698 0.872040
vt 0.783094 0.872687
vt 0.848185 0.729494
vt 0.848455 0.809347
vt 0.843061 0.809347
vt 0.843057 0.729494
vt 0.848190 0.871796
vt 0.843064 0.871796
vt 0.837938 0.871796
vt 0.837666 0.809347
vt 0.837930 0.729494
vt 0.832271 0.809347
vt 0.832265 0.729494
vt 0.832277 0.871796
vt 0.826880 0.871796
vt 0.826876 0.809347
vt 0.826872 0.729494
vt 0.821481 0.809347
vt 0.821478 0.729494
vt 0.821485 0.871796
vt 0.816893 0.871796
vt 0.815283 0.809347
vt 0.816887 0.729494
vt 0.858442 0.729494
vt 0.860049 0.809347
vt 0.853850 0.809347
vt 0.853850 0.729494
vt 0.858442 0.871796
vt 0.853850 0.871796
vt 0.837400 0.871161
vt 0.838476 0.872055
vt 0.832278 0.910235
vt 0.832274 0.871204
vt 0.836873 0.872780
vt 0.832283 0.873034
vt 0.827691 0.872781
vt 0.826080 0.872056
vt 0.827147 0.871162
vt 0.835746 0.728732
vt 0.837356 0.729496
vt 0.831157 0.691803
vt 0.831153 0.728465
vt 0.836289 0.730438
vt 0.831161 0.730394
vt 0.826033 0.730439
vt 0.824959 0.729497
vt 0.826563 0.728733
vt 0.445095 0.687566
vt 0.446637 0.575695
vt 0.442941 0.688125
vt 0.443732 0.575695
vt 0.442040 0.688192
vt 0.448163 0.683265
vt 0.450542 0.670091
vt 0.440725 0.684846
vt 0.438709 0.670091
vt 0.434531 0.852886
vt 0.421484 0.949795
vt 0.432996 0.848559
vt 0.424672 0.848559
vt 0.434195 0.849096
vt 0.426429 0.949282
vt 0.425871 0.848022
vn -0.267220 -0.928174 0.259010
vn -0.323372 -0.407171 0.854191
vn -0.887455 -0.371237 0.273142
vn 0.887455 -0.371237 0.273142
vn 0.323372 -0.407171 0.854191
vn 0.267220 -0.928174 0.259010
vn -0.812600 0.524976 0.253144
vn -0.353942 0.528680 0.771507
vn -0.410495 0.880613 0.236676
vn 0.456879 0.883708 0.101594
vn 0.409865 0.410111 0.814751
vn 0.812600 0.524976 0.253144
vn -0.812270 0.524128 -0.255942
vn -0.364874 0.871710 -0.327091
vn -0.309673 0.526992 -0.791443
vn 0.309679 0.526975 -0.791452
vn 0.364874 0.871710 -0.327091
vn 0.812270 0.524124 -0.255950
vn -0.879010 -0.396054 -0.265484
vn -0.448302 -0.569537 -0.688951
vn -0.275686 -0.930476 -0.241273
vn 0.275686 -0.930476 -0.241273
vn 0.449801 -0.574360 -0.683952
vn 0.879011 -0.396026 -0.265524
vn -0.385667 0.279252 -0.879363
vn -0.519077 0.088541 -0.850129
vn -0.943963 0.022472 -0.329285
vn -0.909278 0.266317 -0.319827
vn -0.905456 0.294261 0.305877
vn -0.947376 0.034370 0.318274
vn -0.402494 0.025313 0.915073
vn -0.381637 0.337629 0.860442
vn 0.381637 0.337629 0.860442
vn 0.402494 0.025314 0.915073
vn 0.947376 0.034370 0.318274
vn 0.905456 0.294261 0.305877
vn 0.909266 0.266294 -0.319880
vn 0.943940 0.022479 -0.329350
vn 0.522082 0.088279 -0.848315
vn 0.385662 0.279170 -0.879391
vn -0.000000 -0.951521 0.307585
vn -0.000000 -0.455477 0.890248
vn -0.402239 0.821782 0.403582
vn -0.451810 0.635477 0.626128
vn 0.857411 0.502074 -0.112994
vn 0.000000 0.917819 -0.397000
vn 0.000005 0.543972 -0.839104
vn -0.000553 -0.829585 -0.558380
vn -0.000000 -0.959548 -0.281544
vn 0.088473 0.987474 -0.130640
vn -0.000305 0.211502 -0.977378
vn 0.000029 0.269847 -0.962903
vn -0.000000 0.330154 0.943927
vn -0.007894 0.380242 0.924853
vn -0.003713 0.669387 -0.742905
vn -0.540569 0.404239 -0.737818
vn 0.546412 -0.675231 0.495478
vn 0.000000 -0.806229 0.591603
vn 0.000000 -0.806229 0.591603
vn 0.548420 0.398075 -0.735372
vn -0.301245 -0.953547 0.000042
vn -0.900764 -0.434282 0.004747
vn 0.900764 -0.434282 0.004747
vn 0.301245 -0.953547 0.000042
vn -0.847198 0.531274 0.001992
vn -0.410544 0.911841 -0.000048
vn 0.410544 0.911841 -0.000048
vn 0.847198 0.531274 0.001992
vn -0.999890 0.014840 0.000048
vn -0.966485 0.256708 -0.002768
vn 0.999890 0.014840 0.000048
vn 0.966485 0.256708 -0.002768
vn 0.000000 1.000000 -0.000048
vn 0.000000 -1.000000 0.000006
vn -0.033180 0.993507 0.108823
vn 0.126904 -0.326893 0.936502
vn -0.710761 0.500057 0.494734
vn -0.411693 -0.085452 0.907307
vn -0.289069 0.159513 0.943925
vn 0.999780 -0.014914 -0.014755
vn 0.491292 -0.660552 -0.567717
vn -0.493406 -0.657774 -0.569108
vn -0.242481 0.799952 -0.548889
vn 0.226920 0.802203 -0.552248
vn -0.003659 0.789757 -0.613410
vn -0.001697 -0.850166 -0.526513
vn 0.963646 -0.038899 0.264335
vn 0.613984 0.581716 -0.533507
vn -0.651797 0.580908 -0.487551
vn -0.934503 -0.051348 0.352232
vn 0.763647 0.230746 -0.602992
vn 0.763647 0.230746 -0.602992
vn -0.765125 0.240756 -0.597177
vn -0.765125 0.240756 -0.597177
vn 0.083247 -0.850518 -0.519316
vn -0.088514 -0.855466 -0.510239
vn -0.001708 -0.876577 -0.481259
vn -0.230707 0.231285 -0.945136
vn -0.230707 0.231285 -0.945136
vn 0.109345 -0.890262 -0.442129
vn -0.105172 -0.902726 -0.417162
vn 0.232278 0.259005 -0.937531
vn 0.232278 0.259005 -0.937530
vn 0.000000 -0.125644 0.992075
vn -0.161337 0.011269 0.986835
vn 0.161337 0.011269 0.986835
vn -0.000000 0.167830 0.985816
vn -0.546412 -0.675231 0.495478
vn 0.000000 0.854107 0.520098
vn 0.000000 0.854107 0.520097
vn 0.658546 0.642750 0.391394
vn -0.658546 0.642750 0.391394
vn -0.558387 0.639097 0.528923
vn -0.666932 0.081945 0.740599
vn 0.055014 0.132391 0.989670
vn 0.021950 0.794400 0.606998
vn -0.530707 -0.505281 0.680471
vn 0.055852 -0.607171 0.792606
vn 0.621912 -0.486224 0.613849
vn 0.744734 0.105285 0.659004
vn 0.594232 0.658154 0.462301
vn 0.998198 0.016504 -0.057696
vn 0.688882 0.712455 -0.133601
vn 0.722783 -0.689115 0.052007
vn 0.558387 -0.639097 -0.528922
vn 0.666931 -0.081945 -0.740599
vn 0.530707 0.505281 -0.680471
vn -0.055014 -0.132391 -0.989670
vn -0.055852 0.607170 -0.792607
vn -0.021950 -0.794401 -0.606997
vn -0.594232 -0.658154 -0.462301
vn -0.744733 -0.105285 -0.659005
vn -0.621912 0.486224 -0.613850
vn -0.998198 -0.016504 0.057695
vn -0.722783 0.689115 -0.052007
vn -0.688882 -0.712455 0.133601
vn 0.023972 -0.991060 0.131245
vn -0.023971 0.991060 -0.131245
vn 0.516464 -0.517675 0.682113
vn 0.666360 0.066164 0.742689
vn -0.054967 0.133693 0.989497
vn -0.072691 -0.605649 0.792405
vn 0.571696 0.625721 0.530694
vn -0.005045 0.794720 0.606955
vn -0.579934 0.672051 0.460460
vn -0.744095 0.122906 0.656671
vn -0.635168 -0.471345 0.611879
vn -0.997342 0.040123 -0.060824
vn -0.739050 -0.671813 0.049715
vn -0.671404 0.728556 -0.135734
vn -0.516464 0.517675 -0.682113
vn -0.666360 -0.066164 -0.742689
vn -0.571697 -0.625721 -0.530694
vn 0.054967 -0.133693 -0.989497
vn 0.005044 -0.794720 -0.606956
vn 0.072691 0.605649 -0.792405
vn 0.635168 0.471345 -0.611879
vn 0.744095 -0.122907 -0.656671
vn 0.579934 -0.672051 -0.460461
vn 0.997342 -0.040123 0.060824
vn 0.671404 -0.728556 0.135734
vn 0.739050 0.671813 -0.049716
vn 0.047833 0.990210 -0.131133
vn -0.047833 -0.990210 0.131132
s 1
g chick
usemtl lambert3SG
f 1/1/1 2/2/2 3/3/3
f 4/4/4 5/5/5 6/6/6
f 7/7/7 8/241/8 9/9/9
f 10/10/10 11/11/11 12/12/12
f 13/13/13 14/14/14 15/15/15
f 16/16/16 17/17/17 18/18/18
f 19/19/19 20/20/20 21/21/21
f 22/22/22 23/23/23 24/24/24
f 25/25/25 26/26/26 28/27/27 27/28/28
f 30/29/29 29/30/30 32/31/31 31/32/32
f 33/33/33 34/34/34 36/35/35 35/36/36
f 38/37/37 37/38/38 40/39/39 39/40/40
f 30/29/29 31/32/32 8/41/8 7/42/7
f 33/33/33 35/36/36 12/43/12 11/44/11
f 13/45/13 15/46/15 25/25/25 27/28/28
f 16/47/16 18/48/18 38/37/37 39/40/40
f 28/27/27 26/26/26 20/49/20 19/50/19
f 32/31/31 29/30/30 3/51/3 2/52/2
f 36/35/35 34/34/34 5/53/5 4/54/4
f 40/39/39 37/38/38 24/55/24 23/56/23
f 2/2/2 1/1/1 47/69/41 48/70/42
f 68/108/43 69/237/44 67/107/45
f 15/15/15 14/14/14 43/61/46 44/62/47
f 21/21/21 20/20/20 45/67/48 46/68/49
f 10/10/10 66/106/50 11/11/11
f 44/62/47 43/61/46 17/17/17 16/16/16
f 46/68/49 45/67/48 23/23/23 22/22/22
f 48/70/42 47/69/41 6/6/6 5/5/5
f 49/66/51 50/64/52 39/72/40 40/73/39
f 50/64/52 49/66/51 26/74/26 25/75/25
f 31/76/32 51/58/53 41/57/54 8/80/8
f 15/81/15 44/63/47 50/64/52 25/75/25
f 39/72/40 50/64/52 44/63/47 16/82/16
f 41/57/54 51/58/53 33/79/33 11/83/11
f 49/66/51 74/114/55 73/113/56 26/74/26
s 13
f 89/137/57 90/135/58 86/126/59
s 1
f 70/110/60 74/114/55 49/66/51 40/73/39
f 56/98/61 57/99/62 19/19/19 21/21/21
f 54/95/63 55/96/64 22/22/22 24/24/24
f 58/104/65 59/105/66 14/14/14 13/13/13
f 52/88/67 53/90/68 18/18/18 17/17/17
f 10/10/10 12/12/12 53/90/68 52/88/67
f 4/4/4 6/6/6 55/96/64 54/95/63
f 1/1/1 3/3/3 57/99/62 56/98/61
f 7/7/7 9/9/9 59/105/66 58/104/65
f 27/28/28 28/27/27 60/101/69 61/103/70
f 61/103/70 60/101/69 29/30/30 30/29/29
f 35/36/36 36/35/35 63/94/71 62/92/72
f 62/92/72 63/94/71 37/38/38 38/37/37
f 62/92/72 38/37/37 18/48/18 53/91/68
f 27/28/28 61/103/70 58/102/65 13/45/13
f 57/100/62 60/101/69 28/27/27 19/50/19
f 24/55/24 37/38/38 63/94/71 54/93/63
f 35/36/36 62/92/72 53/91/68 12/43/12
f 54/93/63 63/94/71 36/35/35 4/54/4
f 3/51/3 29/30/30 60/101/69 57/100/62
f 58/102/65 61/103/70 30/29/29 7/42/7
f 59/105/66 64/89/73 43/61/46 14/14/14
f 21/21/21 46/68/49 65/97/74 56/98/61
f 43/61/46 64/89/73 52/88/67 17/17/17
f 65/97/74 46/68/49 22/22/22 55/96/64
f 47/69/41 65/97/74 55/96/64 6/6/6
f 56/98/61 65/97/74 47/69/41 1/1/1
f 9/9/9 42/60/75 64/89/73 59/105/66
f 52/88/67 64/89/73 42/60/75 10/10/10
f 66/242/76 41/240/54 11/243/11
f 42/60/75 66/106/50 10/10/10
f 42/60/75 41/239/77 66/106/50
f 41/59/54 67/238/78 69/109/79
f 42/60/75 67/107/45 41/239/80
f 42/60/75 68/108/43 67/107/45
f 9/9/9 68/108/43 42/60/75
f 9/9/9 8/241/8 69/237/44 68/108/43
f 41/59/54 69/109/79 8/8/8
f 23/236/23 71/235/81 70/110/60 40/73/39
f 20/84/20 26/74/26 73/113/56 72/233/82
f 85/125/83 74/114/55 82/122/84
f 85/125/83 82/122/84 80/120/85
f 45/65/48 75/115/86 71/111/81 23/87/23
f 72/112/82 75/115/86 45/65/48 20/234/20
f 70/110/60 71/235/81 77/232/87 76/116/88
f 72/233/82 73/113/56 79/119/89 78/118/90
f 80/120/85 82/122/84 83/230/91 81/121/92
f 84/228/93 85/125/83 80/120/85 81/121/94
f 83/123/95 84/124/96 81/231/97
f 83/123/95 75/115/86 84/124/96
f 70/110/60 82/122/84 74/114/55
f 83/230/98 82/122/84 76/116/88 77/232/99
f 71/111/81 83/123/95 77/117/100
f 78/229/101 84/124/96 72/112/82
f 78/118/102 79/119/89 85/125/83 84/228/103
f 73/113/56 85/125/83 79/119/89
f 76/116/88 82/122/84 70/110/60
f 74/114/55 85/125/83 73/113/56
f 75/115/86 83/123/95 71/111/81
f 72/112/82 84/124/96 75/115/86
f 48/71/42 86/134/104 88/132/105 32/77/31 2/85/2
f 5/86/5 34/78/34 89/133/106 86/134/104 48/71/42
f 51/58/53 87/131/107 89/133/106 34/78/34 33/79/33
f 31/76/32 32/77/31 88/132/105 87/131/107 51/58/53
s 13
f 88/128/108 86/126/59 90/135/58
s 15
f 87/127/109 90/130/110 89/129/111
f 88/136/112 90/130/110 87/127/109
s 16
f 91/138/113 105/139/114 111/140/115 108/141/116
f 105/139/114 92/142/117 106/143/118 111/140/115
f 111/140/115 106/143/118 94/144/119 107/145/120
f 108/141/116 111/140/115 107/145/120 93/146/121
f 93/146/121 107/145/120 112/147/122 99/148/123
f 107/145/120 94/144/119 109/149/124 112/147/122
f 112/147/122 109/149/124 96/150/125 110/151/126
f 99/148/123 112/147/122 110/151/126 95/152/127
f 95/152/127 110/151/126 113/153/128 102/154/129
f 110/151/126 96/150/125 100/155/130 113/153/128
f 113/153/128 100/155/130 98/156/131 101/157/132
f 102/154/129 113/153/128 101/157/132 97/158/133
f 97/159/133 101/160/132 114/161/134 104/162/135
f 101/160/132 98/163/131 103/164/136 114/161/134
f 114/161/134 103/164/136 92/142/117 105/139/114
f 104/162/135 114/161/134 105/139/114 91/138/113
f 92/165/117 103/166/136 115/167/137 106/168/118
f 103/166/136 98/169/131 100/170/130 115/167/137
f 115/167/137 100/170/130 96/171/125 109/172/124
f 106/168/118 115/167/137 109/172/124 94/173/119
f 97/174/133 104/175/135 116/176/138 102/177/129
f 104/175/135 91/178/113 108/179/116 116/176/138
f 116/176/138 108/179/116 93/180/121 99/181/123
f 102/177/129 116/176/138 99/181/123 95/182/127
s 17
f 117/183/139 131/184/140 137/185/141 134/186/142
f 131/184/140 118/187/143 132/188/144 137/185/141
f 137/185/141 132/188/144 120/189/145 133/190/146
f 134/186/142 137/185/141 133/190/146 119/191/147
f 119/191/147 133/190/146 138/192/148 125/193/149
f 133/190/146 120/189/145 135/194/150 138/192/148
f 138/192/148 135/194/150 122/195/151 136/196/152
f 125/193/149 138/192/148 136/196/152 121/197/153
f 121/197/153 136/196/152 139/198/154 128/199/155
f 136/196/152 122/195/151 126/200/156 139/198/154
f 139/198/154 126/200/156 124/201/157 127/202/158
f 128/199/155 139/198/154 127/202/158 123/203/159
f 123/204/159 127/205/158 140/206/160 130/207/161
f 127/205/158 124/208/157 129/209/162 140/206/160
f 140/206/160 129/209/162 118/187/143 131/184/140
f 130/207/161 140/206/160 131/184/140 117/183/139
f 118/210/143 129/211/162 141/212/163 132/213/144
f 129/211/162 124/214/157 126/215/156 141/212/163
f 141/212/163 126/215/156 122/216/151 135/217/150
f 132/213/144 141/212/163 135/217/150 120/218/145
f 123/219/159 130/220/161 142/221/164 128/222/155
f 130/220/161 117/223/139 134/224/142 142/221/164
f 142/221/164 134/224/142 119/225/147 125/226/149
f 128/222/155 142/221/164 125/226/149 121/227/153
