# 3ds Max Wavefront OBJ Exporter v0.99 - (c)2007 guruware
# File Created: 26.04.2021 14:31:48

mtllib dianaGrande.mtl

#
# object polySurface52
#

v  -7.4739 48.3715 8.4544
v  -7.1399 50.2056 5.2231
v  -10.7283 50.8885 5.2231
v  -11.0623 49.0544 8.4544
v  -15.2030 5.9730 -20.7534
v  -18.7914 6.6559 -20.7534
v  -15.5370 4.1389 -17.5221
v  -19.1255 4.8218 -17.5221
v  -7.5272 28.8017 19.8925
v  -6.8483 32.4485 19.4899
v  -10.5165 33.1314 19.4899
v  -11.1954 29.4846 19.8925
v  -7.4406 29.2671 -10.3285
v  -11.1088 29.9500 -10.3285
v  -8.1195 25.6203 -9.9259
v  -11.7877 26.3033 -9.9259
v  -6.1963 56.1304 7.0821
v  -6.3731 55.1810 3.4780
v  -10.0413 55.8639 3.4780
v  -9.8645 56.8132 7.0821
v  -15.7114 5.0207 17.1493
v  -19.3796 5.7036 17.1493
v  -15.5347 5.9701 20.7534
v  -19.2029 6.6530 20.7534
v  21.5188 60.8893 5.7540
v  16.4698 68.1429 3.6364
v  16.4698 69.3124 7.6424
v  21.5188 62.0588 9.7600
v  8.9134 72.9896 2.2215
v  8.9134 74.1591 6.2275
v  0.0000 74.6916 1.7246
v  0.0000 75.8611 5.7306
v  -8.9134 72.9897 2.2215
v  -8.9134 74.1591 6.2275
v  -16.4697 68.1429 3.6364
v  -16.4697 69.3124 7.6424
v  -21.5188 60.8893 5.7540
v  -21.5188 62.0588 9.7600
v  -23.2917 52.3331 8.2518
v  -23.2917 53.5026 12.2578
v  -21.5188 43.7769 10.7497
v  -21.5188 44.9464 14.7557
v  -16.4697 36.5233 12.8672
v  -16.4697 37.6928 16.8732
v  -8.9134 31.6766 14.2822
v  -8.9134 32.8461 18.2882
v  0.0000 29.9746 14.7790
v  0.0000 31.1441 18.7850
v  8.9134 31.6766 14.2822
v  8.9134 32.8461 18.2882
v  16.4698 36.5233 12.8672
v  16.4698 37.6928 16.8733
v  21.5188 43.7769 10.7497
v  21.5188 44.9464 14.7557
v  23.2917 52.3331 8.2518
v  23.2917 53.5026 12.2578
v  7.6540 48.3715 8.4544
v  11.2424 49.0544 8.4544
v  10.9084 50.8885 5.2231
v  7.3200 50.2056 5.2231
v  18.9715 6.6559 -20.7534
v  15.3831 5.9730 -20.7534
v  19.3056 4.8218 -17.5221
v  15.7171 4.1389 -17.5221
v  7.7073 28.8017 19.8925
v  11.3755 29.4846 19.8925
v  10.6966 33.1314 19.4899
v  7.0284 32.4485 19.4899
v  11.2889 29.9500 -10.3285
v  7.6207 29.2671 -10.3285
v  11.9678 26.3033 -9.9259
v  8.2996 25.6203 -9.9259
v  6.3764 56.1304 7.0821
v  10.0446 56.8132 7.0821
v  10.2214 55.8639 3.4780
v  6.5532 55.1810 3.4780
v  19.5597 5.7036 17.1493
v  15.8915 5.0207 17.1493
v  19.3829 6.6530 20.7534
v  15.7148 5.9701 20.7534
v  -14.8444 35.2055 8.8076
v  -14.8543 34.4883 5.1465
v  -14.8633 30.8272 5.8637
v  -14.8534 31.5443 9.5248
v  15.1294 30.7404 5.7994
v  15.1393 31.4575 9.4605
v  15.1384 34.4015 5.0822
v  15.1484 35.1186 8.7433
# 88 vertices

vn 0.1619 0.8509 0.4997
vn 0.0935 0.4915 -0.8659
vn -0.1619 -0.8509 -0.4997
vn -0.0935 -0.4915 0.8659
vn -0.9838 0.1793 0.0001
vn 0.9838 -0.1793 -0.0001
vn 0.0197 0.1061 0.9942
vn 0.1820 0.9774 -0.1079
vn -0.0197 -0.1061 -0.9942
vn -0.1820 -0.9774 0.1079
vn -0.9831 0.1830 -0.0000
vn 0.9831 -0.1830 0.0000
vn 0.1768 0.9496 -0.2588
vn -0.0474 -0.2544 -0.9659
vn -0.1768 -0.9496 0.2588
vn 0.0474 0.2544 0.9659
vn -0.9831 0.1830 0.0000
vn 0.9831 -0.1830 -0.0000
vn 0.9239 0.3673 -0.1072
vn 0.7071 0.6788 -0.1982
vn 0.3827 0.8869 -0.2589
vn 0.0000 0.9599 -0.2802
vn -0.3827 0.8869 -0.2589
vn -0.7071 0.6788 -0.1982
vn -0.9239 0.3674 -0.1072
vn -1.0000 0.0000 -0.0000
vn -0.9239 -0.3674 0.1072
vn -0.7071 -0.6788 0.1982
vn -0.3827 -0.8869 0.2589
vn -0.0000 -0.9599 0.2802
vn 0.3827 -0.8869 0.2589
vn 0.7071 -0.6788 0.1982
vn 0.9239 -0.3673 0.1072
vn 1.0000 0.0000 -0.0000
vn 1.0000 0.0000 0.0000
vn -0.0000 -0.2802 -0.9599
vn 0.0000 0.2802 0.9599
vn -0.1619 0.8509 0.4997
vn -0.0935 0.4915 -0.8659
vn 0.1619 -0.8509 -0.4997
vn 0.0935 -0.4915 0.8659
vn 0.9838 0.1793 0.0001
vn -0.9838 -0.1793 -0.0001
vn -0.0197 0.1061 0.9942
vn -0.1820 0.9774 -0.1079
vn 0.0197 -0.1061 -0.9942
vn 0.1820 -0.9774 0.1079
vn 0.9831 0.1830 -0.0000
vn -0.9831 -0.1830 0.0000
vn -0.1768 0.9496 -0.2588
vn 0.0474 -0.2544 -0.9659
vn 0.1768 -0.9496 0.2588
vn -0.0474 0.2544 0.9659
vn 0.9831 0.1830 0.0000
vn -0.9831 -0.1830 -0.0000
vn -1.0000 0.0029 0.0021
vn -0.0024 -0.9813 0.1922
vn 1.0000 -0.0029 -0.0021
vn 0.0024 0.9813 -0.1922
vn -0.0027 -0.1922 -0.9813
vn 0.0027 0.1922 0.9813
# 61 vertex normals

vt 0.2303 0.7357 0.0000
vt 0.2303 0.7105 0.0000
vt 0.2550 0.7104 0.0000
vt 0.2550 0.7356 0.0000
vt 0.0804 0.6485 0.0000
vt 0.0803 0.2986 0.0000
vt 0.1050 0.2987 0.0000
vt 0.1050 0.6487 0.0000
vt 0.2304 0.7104 0.0000
vt 0.2303 0.6852 0.0000
vt 0.2550 0.6853 0.0000
vt 0.1547 0.2986 0.0000
vt 0.1548 0.6485 0.0000
vt 0.1302 0.6487 0.0000
vt 0.1301 0.2987 0.0000
vt 0.0552 0.2986 0.0000
vt 0.0553 0.6485 0.0000
vt 0.2303 0.6098 0.0000
vt 0.2303 0.5846 0.0000
vt 0.2555 0.5846 0.0000
vt 0.2555 0.6098 0.0000
vt 0.1184 0.5399 0.0000
vt 0.1184 0.3378 0.0000
vt 0.1435 0.3378 0.0000
vt 0.1435 0.5399 0.0000
vt 0.2303 0.6349 0.0000
vt 0.2555 0.6349 0.0000
vt 0.0932 0.3378 0.0000
vt 0.0932 0.5399 0.0000
vt 0.0681 0.5399 0.0000
vt 0.0681 0.3378 0.0000
vt 0.1687 0.5399 0.0000
vt 0.1687 0.3378 0.0000
vt 0.2555 0.6601 0.0000
vt 0.2555 0.6852 0.0000
vt 0.2303 0.6601 0.0000
vt 0.1207 0.3049 0.0000
vt 0.1207 0.6609 0.0000
vt 0.0956 0.6609 0.0000
vt 0.0955 0.3049 0.0000
vt 0.0453 0.6609 0.0000
vt 0.0452 0.3049 0.0000
vt 0.0704 0.3049 0.0000
vt 0.0704 0.6609 0.0000
vt 0.0201 0.6609 0.0000
vt 0.0201 0.3049 0.0000
vt 0.4826 0.0380 0.0000
vt 0.6195 0.0058 0.0000
vt 0.6266 0.0267 0.0000
vt 0.4990 0.0565 0.0000
vt 0.7585 0.0286 0.0000
vt 0.7561 0.0482 0.0000
vt 0.8781 0.1032 0.0000
vt 0.8676 0.1178 0.0000
vt 0.9601 0.2179 0.0000
vt 0.9440 0.2249 0.0000
vt 0.9918 0.3552 0.0000
vt 0.9735 0.3531 0.0000
vt 0.9685 0.4942 0.0000
vt 0.9516 0.4829 0.0000
vt 0.8938 0.6137 0.0000
vt 0.8817 0.5944 0.0000
vt 0.7791 0.6954 0.0000
vt 0.7745 0.6707 0.0000
vt 0.6417 0.7270 0.0000
vt 0.6462 0.7000 0.0000
vt 0.5028 0.7036 0.0000
vt 0.5165 0.6779 0.0000
vt 0.3833 0.6288 0.0000
vt 0.4052 0.6079 0.0000
vt 0.3018 0.5139 0.0000
vt 0.3292 0.5007 0.0000
vt 0.2705 0.3765 0.0000
vt 0.3002 0.3728 0.0000
vt 0.2944 0.2379 0.0000
vt 0.3225 0.2436 0.0000
vt 0.3692 0.1197 0.0000
vt 0.3926 0.1329 0.0000
vt 0.8396 0.0682 0.0000
vt 0.8463 0.0435 0.0000
vt 0.8619 0.0231 0.0000
vt 0.8841 0.0103 0.0000
vt 0.9096 0.0069 0.0000
vt 0.9343 0.0136 0.0000
vt 0.9547 0.0292 0.0000
vt 0.9675 0.0514 0.0000
vt 0.9709 0.0769 0.0000
vt 0.9642 0.1017 0.0000
vt 0.9486 0.1220 0.0000
vt 0.9264 0.1348 0.0000
vt 0.9009 0.1382 0.0000
vt 0.8761 0.1315 0.0000
vt 0.8558 0.1159 0.0000
vt 0.8430 0.0937 0.0000
# 94 texture coords

o polySurface52
g polySurface52
usemtl Material__25
s off
f 1/1/1 2/2/1 3/3/1 
f 3/3/1 4/4/1 1/1/1 
f 2/5/2 5/6/2 6/7/2 
f 6/7/2 3/8/2 2/5/2 
f 5/9/3 7/10/3 8/11/3 
f 8/11/3 6/3/3 5/9/3 
f 7/12/4 1/13/4 4/14/4 
f 4/14/4 8/15/4 7/12/4 
f 4/14/5 3/8/5 6/7/5 
f 6/7/5 8/15/5 4/14/5 
f 7/16/6 5/6/6 2/5/6 
f 2/5/6 1/17/6 7/16/6 
f 9/18/7 10/19/7 11/20/7 
f 11/20/7 12/21/7 9/18/7 
f 10/22/8 13/23/8 14/24/8 
f 14/24/8 11/25/8 10/22/8 
f 13/26/9 15/18/9 16/21/9 
f 16/21/9 14/27/9 13/26/9 
f 15/28/10 9/29/10 12/30/10 
f 12/30/10 16/31/10 15/28/10 
f 12/32/11 11/25/11 14/24/11 
f 14/24/11 16/33/11 12/32/11 
f 15/28/12 13/23/12 10/22/12 
f 10/22/12 9/29/12 15/28/12 
f 17/34/13 18/35/13 19/10/13 
f 19/10/13 20/36/13 17/34/13 
f 18/37/14 21/38/14 22/39/14 
f 22/39/14 19/40/14 18/37/14 
f 21/34/15 23/36/15 24/26/15 
f 24/26/15 22/27/15 21/34/15 
f 23/41/16 17/42/16 20/43/16 
f 20/43/16 24/44/16 23/41/16 
f 20/43/17 19/40/17 22/39/17 
f 22/39/17 24/44/17 20/43/17 
f 23/41/18 21/45/18 18/46/18 
f 18/46/18 17/42/18 23/41/18 
f 25/47/19 26/48/20 27/49/20 
f 27/49/20 28/50/19 25/47/19 
f 26/48/20 29/51/21 30/52/21 
f 30/52/21 27/49/20 26/48/20 
f 29/51/21 31/53/22 32/54/22 
f 32/54/22 30/52/21 29/51/21 
f 31/53/22 33/55/23 34/56/23 
f 34/56/23 32/54/22 31/53/22 
f 33/55/23 35/57/24 36/58/24 
f 36/58/24 34/56/23 33/55/23 
f 35/57/24 37/59/25 38/60/25 
f 38/60/25 36/58/24 35/57/24 
f 37/59/25 39/61/26 40/62/26 
f 40/62/26 38/60/25 37/59/25 
f 39/61/26 41/63/27 42/64/27 
f 42/64/27 40/62/26 39/61/26 
f 41/63/27 43/65/28 44/66/28 
f 44/66/28 42/64/27 41/63/27 
f 43/65/28 45/67/29 46/68/29 
f 46/68/29 44/66/28 43/65/28 
f 45/67/29 47/69/30 48/70/30 
f 48/70/30 46/68/29 45/67/29 
f 47/69/30 49/71/31 50/72/31 
f 50/72/31 48/70/30 47/69/30 
f 49/71/31 51/73/32 52/74/32 
f 52/74/32 50/72/31 49/71/31 
f 51/73/32 53/75/33 54/76/33 
f 54/76/33 52/74/32 51/73/32 
f 53/75/33 55/77/34 56/78/35 
f 56/78/35 54/76/33 53/75/33 
f 55/77/34 25/47/19 28/50/19 
f 28/50/19 56/78/35 55/77/34 
f 25/79/36 55/80/36 53/81/36 
f 25/79/36 53/81/36 51/82/36 
f 25/79/36 51/82/36 49/83/36 
f 25/79/36 49/83/36 47/84/36 
f 25/79/36 47/84/36 45/85/36 
f 25/79/36 45/85/36 43/86/36 
f 25/79/36 43/86/36 41/87/36 
f 25/79/36 41/87/36 39/88/36 
f 25/79/36 39/88/36 37/89/36 
f 25/79/36 37/89/36 35/90/36 
f 25/79/36 35/90/36 33/91/36 
f 25/79/36 33/91/36 31/92/36 
f 25/79/36 31/92/36 29/93/36 
f 25/79/36 29/93/36 26/94/36 
f 28/50/37 27/49/37 30/52/37 
f 28/50/37 30/52/37 32/54/37 
f 28/50/37 32/54/37 34/56/37 
f 28/50/37 34/56/37 36/58/37 
f 28/50/37 36/58/37 38/60/37 
f 28/50/37 38/60/37 40/62/37 
f 28/50/37 40/62/37 42/64/37 
f 28/50/37 42/64/37 44/66/37 
f 28/50/37 44/66/37 46/68/37 
f 28/50/37 46/68/37 48/70/37 
f 28/50/37 48/70/37 50/72/37 
f 28/50/37 50/72/37 52/74/37 
f 28/50/37 52/74/37 54/76/37 
f 28/50/37 54/76/37 56/78/37 
f 57/1/38 58/4/38 59/3/38 
f 59/3/38 60/2/38 57/1/38 
f 60/5/39 59/8/39 61/7/39 
f 61/7/39 62/6/39 60/5/39 
f 62/9/40 61/3/40 63/11/40 
f 63/11/40 64/10/40 62/9/40 
f 64/12/41 63/15/41 58/14/41 
f 58/14/41 57/13/41 64/12/41 
f 58/14/42 63/15/42 61/7/42 
f 61/7/42 59/8/42 58/14/42 
f 64/16/43 57/17/43 60/5/43 
f 60/5/43 62/6/43 64/16/43 
f 65/18/44 66/21/44 67/20/44 
f 67/20/44 68/19/44 65/18/44 
f 68/22/45 67/25/45 69/24/45 
f 69/24/45 70/23/45 68/22/45 
f 70/26/46 69/27/46 71/21/46 
f 71/21/46 72/18/46 70/26/46 
f 72/28/47 71/31/47 66/30/47 
f 66/30/47 65/29/47 72/28/47 
f 66/32/48 71/33/48 69/24/48 
f 69/24/48 67/25/48 66/32/48 
f 72/28/49 65/29/49 68/22/49 
f 68/22/49 70/23/49 72/28/49 
f 73/34/50 74/36/50 75/10/50 
f 75/10/50 76/35/50 73/34/50 
f 76/37/51 75/40/51 77/39/51 
f 77/39/51 78/38/51 76/37/51 
f 78/34/52 77/27/52 79/26/52 
f 79/26/52 80/36/52 78/34/52 
f 80/41/53 79/44/53 74/43/53 
f 74/43/53 73/42/53 80/41/53 
f 74/43/54 79/44/54 77/39/54 
f 77/39/54 75/40/54 74/43/54 
f 80/41/55 73/42/55 76/46/55 
f 76/46/55 78/45/55 80/41/55 
f 81/18/56 82/21/56 83/20/56 
f 83/20/56 84/19/56 81/18/56 
f 84/22/57 83/25/57 85/24/57 
f 85/24/57 86/23/57 84/22/57 
f 86/26/58 85/27/58 87/21/58 
f 87/21/58 88/18/58 86/26/58 
f 88/28/59 87/31/59 82/30/59 
f 82/30/59 81/29/59 88/28/59 
f 82/32/60 87/33/60 85/24/60 
f 85/24/60 83/25/60 82/32/60 
f 88/28/61 81/29/61 84/22/61 
f 84/22/61 86/23/61 88/28/61 
# 144 faces

