# 3ds Max Wavefront OBJ Exporter v0.99 - (c)2007 guruware
# File Created: 05.06.2021 21:10:37

mtllib awaTerreno1.mtl

#
# object Waterfall
#

v  -735.0943 7.0507 1176.6329
v  -735.0943 7.0507 -72.0096
v  -1011.3414 7.0507 -80.3627
v  -1013.0682 7.0507 -79.5465
v  -1072.6675 7.0507 -72.0096
v  -1072.6675 7.0507 1176.6333
v  -782.7159 7.0507 1232.2695
v  -781.9109 7.0507 1204.5942
v  -1041.0540 7.0507 1196.5339
v  -766.9720 -13.5615 1226.5447
v  -735.0943 7.0507 -1460.0684
v  -1072.6675 7.0507 -1460.0684
v  -1072.6675 7.0507 -240.3319
v  -1013.5821 7.0507 -209.3333
v  -1011.8484 7.0507 -209.5490
v  -735.0943 7.0507 -240.3319
v  -735.0943 7.0507 -113.3099
v  -1001.6647 7.0507 -113.3098
v  -1072.6675 7.0507 -195.9105
v  -1018.5700 7.0507 -195.9720
v  -735.0943 7.0507 -195.9105
v  -1003.9540 7.0507 -185.5804
v  -999.6185 7.0507 -152.1547
v  -735.0943 7.0507 -154.6104
v  -1072.6675 7.0507 -154.6101
v  -1072.6675 7.0507 -113.3098
v  -1023.1954 7.0507 -113.3098
v  -1025.7275 7.0507 -154.6101
# 28 vertices

vn 0.0000 1.0000 -0.0000
vn 0.7976 0.6028 0.0232
# 2 vertex normals

vt 0.1512 0.5860 0.0000
# 1 texture coords

o Waterfall
g Waterfall
usemtl Material__25
s off
f 1/1/1 2/1/1 3/1/1 
f 1/1/1 3/1/1 4/1/1 
f 1/1/1 4/1/1 5/1/1 
f 6/1/1 1/1/1 5/1/1 
f 7/1/1 8/1/1 9/1/1 
f 6/1/1 9/1/1 8/1/1 
f 8/1/1 1/1/1 6/1/1 
f 8/1/2 7/1/2 10/1/2 
f 11/1/1 12/1/1 13/1/1 
f 11/1/1 13/1/1 14/1/1 
f 11/1/1 14/1/1 15/1/1 
f 16/1/1 11/1/1 15/1/1 
f 2/1/1 17/1/1 18/1/1 
f 18/1/1 3/1/1 2/1/1 
f 13/1/1 19/1/1 20/1/1 
f 20/1/1 14/1/1 13/1/1 
f 21/1/1 22/1/1 23/1/1 
f 23/1/1 24/1/1 21/1/1 
f 25/1/1 26/1/1 27/1/1 
f 27/1/1 28/1/1 25/1/1 
f 17/1/1 24/1/1 23/1/1 
f 23/1/1 18/1/1 17/1/1 
f 19/1/1 25/1/1 28/1/1 
f 28/1/1 20/1/1 19/1/1 
f 16/1/1 15/1/1 22/1/1 
f 22/1/1 21/1/1 16/1/1 
f 26/1/1 5/1/1 4/1/1 
f 4/1/1 27/1/1 26/1/1 
# 28 faces

