# 3ds Max Wavefront OBJ Exporter v0.99 - (c)2007 guruware
# File Created: 26.04.2021 14:28:34

mtllib arbol4.mtl

#
# object Circle_007
#

v  0.0000 -0.0000 -3.6123
v  2.5543 -0.0000 -2.5543
v  3.6123 -0.0000 -0.0000
v  2.5543 -0.0000 2.5543
v  0.0000 -0.0000 3.6123
v  -2.5543 -0.0000 2.5543
v  -3.6123 -0.0000 0.0000
v  -2.5543 -0.0000 -2.5543
v  1.1827 4.0603 -2.0850
v  -0.5988 3.4719 -2.9386
v  0.1519 7.2802 -2.3471
v  1.5723 6.8383 -1.6668
v  1.7692 3.8883 -0.0782
v  0.8829 4.4404 2.2210
v  -1.0524 3.1565 2.5915
v  -2.9420 2.7092 1.6094
v  -3.0782 2.3698 0.3436
v  -2.4788 2.8646 -1.4292
v  -0.3017 6.9647 2.0000
v  1.2725 7.2184 1.8028
v  1.1858 10.9205 1.8422
v  -0.4749 10.2794 2.0558
v  2.0093 6.2395 -0.0782
v  -1.8301 7.5478 1.1911
v  -1.8167 7.6351 0.3436
v  -1.3669 7.7031 -1.0109
v  1.9584 10.1021 -0.0782
v  1.4856 10.5404 -1.7062
v  4.5360 10.1155 -4.8804
v  6.0992 9.7062 -0.1563
v  -2.0899 10.4751 1.2306
v  -2.1124 10.4019 0.3436
v  -1.6267 10.6304 -1.0504
v  -0.0214 10.5949 -2.4029
v  3.9364 11.8104 5.1525
v  8.9362 9.0639 -0.1172
v  6.0267 10.2915 6.9897
v  -0.8759 10.7218 6.1876
v  -5.5966 10.9197 3.9292
v  -6.2591 10.3060 0.6871
v  -4.6703 10.2956 -3.5688
v  0.0313 10.0309 -6.8818
v  -0.0104 9.8031 -9.5812
v  -6.6448 9.8564 -5.8019
v  -8.2052 7.3258 -7.3604
v  0.1192 7.6923 -12.7742
v  -0.6908 9.3299 9.0605
v  -7.3396 9.6235 6.0722
v  -9.1239 9.5137 0.5153
v  6.4764 9.7214 -6.7856
v  11.5793 7.2754 -0.2345
v  8.8955 8.5261 -9.2975
v  10.4035 10.3083 -7.7556
v  13.7060 8.9996 -0.1172
v  7.8203 9.5430 9.3405
v  -1.2416 6.7458 11.7329
v  -9.5069 6.9215 7.2926
v  -11.6748 6.0518 1.0307
v  -9.3939 11.7583 -6.4690
v  -13.8937 11.2404 0.5153
v  -14.8933 12.5027 0.5153
v  -9.1995 12.3819 -8.3398
v  9.6766 10.6840 11.5936
v  -0.6908 10.1611 13.8584
v  -9.0480 10.4228 12.3726
v  -0.0104 10.6343 -14.3791
v  11.9114 12.9264 -9.4954
v  -0.0104 13.2262 -15.3568
v  -0.0104 16.4235 -15.4273
v  9.3053 15.7367 -12.6213
v  14.7056 12.9211 -0.1172
v  10.7840 13.7590 11.7608
v  -0.6908 12.7530 14.8361
v  -9.5554 12.0177 12.0457
v  -14.9609 16.6612 0.5153
v  -13.2523 16.2971 7.8659
v  -12.2388 16.4319 7.3945
v  -13.2082 17.5491 0.5153
v  14.7732 15.1572 -0.1172
v  9.5048 16.4230 10.2725
v  -0.6908 15.9503 14.9066
v  -12.2329 16.5882 -11.8503
v  13.0205 18.2521 -0.1172
v  7.9017 17.7256 -10.8274
v  4.8973 22.7164 -5.7387
v  9.0267 21.1674 -0.0000
v  -11.1784 16.9186 -9.9868
v  -0.0104 18.4150 -13.6777
v  8.1834 18.8033 9.3139
v  -0.6908 17.9417 13.1571
v  -8.6111 23.2974 7.5075
v  -0.1422 21.1674 9.1690
v  -0.8167 18.9244 15.9636
v  -13.9283 16.5147 10.4120
v  5.6192 21.9419 6.8558
v  -9.3112 21.1674 -0.0000
v  -8.2501 22.9101 -5.6456
v  -0.1422 21.1674 -9.1690
v  10.3799 18.1516 -12.1057
v  0.0904 19.5553 -16.6578
v  -0.0104 21.2599 -18.3437
v  12.4278 21.2069 -13.1823
v  -15.9325 18.5616 0.6871
v  -12.7275 17.2565 -10.8332
v  15.8909 19.1775 -0.1563
v  10.3289 19.7740 11.9088
v  -0.6908 20.7867 17.8231
v  12.1004 21.7626 13.0854
v  13.2418 24.0121 14.4998
v  -0.8736 22.0822 19.0666
v  17.6987 20.5207 -0.1172
v  -13.8721 21.1198 11.9924
v  -17.8864 20.9705 0.5153
v  -13.1161 21.3455 -12.2237
v  18.9476 21.5768 -0.1563
v  14.0608 24.0062 -13.5063
v  14.3827 25.8943 -15.2191
v  20.0623 25.5740 -0.1563
v  -14.4726 22.9451 12.9589
v  -19.1031 22.4781 0.6871
v  -13.2579 24.5881 -12.1345
v  0.0335 22.7132 -19.7608
v  13.7968 26.7604 14.8604
v  19.5396 27.4079 -0.1563
v  13.7659 28.6398 15.9723
v  -0.8736 24.7521 20.2140
v  -15.5039 24.0204 13.2692
v  -20.2177 23.8206 0.6871
v  -14.5707 24.3840 -13.9600
v  0.0335 25.3831 -20.9082
v  0.0335 27.5953 -20.3679
v  -13.4390 26.7169 -10.2164
v  -12.4193 30.6136 -11.7171
v  -0.0104 30.3666 -18.0640
v  -0.8736 26.9644 19.6737
v  -13.1127 26.2686 13.1667
v  -19.6950 26.4112 0.6871
v  14.6905 27.7085 -11.8490
v  17.4028 28.8632 -0.1172
v  12.6518 29.4363 -12.7101
v  9.3575 32.4958 -10.3246
v  13.2105 31.7607 -0.1563
v  12.1078 30.1605 13.0248
v  -0.6908 29.8934 17.5434
v  -13.0669 30.3036 12.1719
v  -17.5904 30.8414 0.5153
v  -10.6230 32.1950 -9.0174
v  -14.3863 31.7049 0.6871
v  -8.3055 35.9744 0.6871
v  -5.7574 36.0977 -4.7504
v  8.7597 33.2671 10.5426
v  -1.3849 31.7687 13.8359
v  -11.5516 31.8496 9.2878
v  -0.4930 32.4210 -14.5301
v  6.3062 34.1608 -6.1010
v  0.0335 35.1203 -9.0492
v  -0.0544 34.1976 -14.9621
v  9.9066 33.5555 -11.5975
v  8.1501 33.7720 -0.1563
v  5.5469 34.9079 6.8410
v  -0.8736 34.4894 8.3550
v  -6.6040 35.7936 5.8907
v  -14.7046 34.0046 0.3436
v  -11.5904 33.2698 8.7218
v  -11.9229 33.7508 13.8123
v  -17.1134 36.3105 0.0000
v  14.4847 33.7048 -0.0782
v  9.8202 34.2294 10.2177
v  -0.5079 33.8821 14.6150
v  -11.0205 33.5721 -11.0679
v  16.6241 35.2386 -0.0000
v  11.8650 33.6481 -10.5680
v  12.0349 35.8368 -10.3801
v  16.9025 36.8056 -0.0000
v  -11.9683 34.1877 -10.3972
v  -0.2447 35.7746 -16.8772
v  11.7742 34.5218 12.6170
v  -0.2447 35.7746 16.8772
v  -12.0232 36.2661 14.3701
v  -0.1422 37.4132 17.0556
v  -1.1786 39.6419 11.6640
v  -8.0862 39.8688 8.8015
v  11.9726 36.4102 12.9001
v  -17.1870 38.0209 0.0000
v  -12.0544 36.5528 -10.1701
v  -0.1422 37.4132 -17.0556
v  8.3425 40.4845 -7.8900
v  -0.9518 39.7997 -11.8375
v  -0.5080 42.2236 -7.3289
v  3.3321 42.4672 -5.7120
v  -12.6225 39.1970 0.1718
v  -8.1115 39.8579 -7.5016
v  10.6634 40.0595 -0.0391
v  7.6788 40.4975 8.6839
v  -0.7348 42.0658 7.1553
v  3.8016 42.3851 4.9908
v  0.1375 44.7550 2.9562
v  -1.4907 44.5131 2.9968
v  6.5991 41.5905 -0.0391
v  -7.5713 43.1855 4.2247
v  -7.6707 42.5138 0.1718
v  -7.0300 43.1271 -5.4498
v  1.6803 44.1229 -0.0391
v  0.8715 44.4304 -2.2453
v  0.5394 47.1385 -0.8808
v  0.7851 46.9584 -0.0391
v  -5.2864 45.1943 3.7754
v  -4.2638 44.8759 0.1718
v  -4.7627 45.2046 -0.4709
v  -1.2639 44.6708 -3.1703
v  0.3895 47.3285 0.9488
v  -0.1422 48.8157 -0.0000
v  -0.4634 46.9136 1.0670
v  -1.2933 46.9170 0.6430
v  -1.3139 46.8413 0.1718
v  -1.0617 46.9946 -0.5529
v  -0.2366 47.0713 -1.2406
# 217 vertices

vn 0.0000 -1.0000 -0.0000
vn 0.4288 0.0639 -0.9012
vn 0.8783 0.3701 -0.3027
vn 0.2281 0.2495 0.9411
vn -0.9542 0.0622 0.2928
vn -0.5113 0.1954 -0.8369
vn 0.3658 0.2324 -0.9012
vn 0.8717 0.3829 0.3057
vn -0.4253 0.1920 0.8844
vn -0.9224 0.2001 -0.3304
vn 0.1283 -0.0087 0.9917
vn 0.9187 -0.0813 0.3865
vn -0.4487 0.1984 0.8714
vn -0.9343 0.2307 -0.2719
vn 0.9522 -0.0932 -0.2910
vn 0.1009 0.1337 0.9859
vn -0.9728 0.2297 0.0291
vn -0.6329 0.2229 -0.7415
vn -0.1501 -0.9851 -0.0833
vn -0.9953 -0.0971 0.0044
vn -0.6560 -0.0570 -0.7526
vn 0.4261 0.0035 -0.9047
vn 0.9317 0.0151 0.3628
vn -0.4697 -0.0460 0.8816
vn -0.9393 -0.0939 -0.3299
vn 0.9635 0.0161 -0.2673
vn -0.4228 -0.9035 0.0697
vn 0.2726 -0.9583 0.0855
vn 0.0191 -0.9868 0.1610
vn 0.0358 -0.9930 0.1123
vn 0.0363 -0.9930 0.1125
vn 0.0372 -0.9929 0.1128
vn -0.0445 -0.9929 0.1103
vn -0.0451 -0.9928 0.1107
vn -0.0450 -0.9928 0.1106
vn -0.0927 -0.9356 0.3406
vn -0.0973 -0.9926 0.0732
vn 0.0643 -0.9978 -0.0149
vn 0.3758 -0.7169 0.5871
vn 0.1589 -0.8899 -0.4276
vn 0.2208 -0.9738 0.0543
vn -0.2174 -0.9760 -0.0146
vn 0.0085 -0.8488 -0.5287
vn 0.3998 -0.9159 -0.0359
vn 0.0447 -0.9923 0.1159
vn -0.0493 -0.9923 0.1137
vn 0.7282 -0.5886 -0.3512
vn -0.1408 -0.8826 0.4486
vn -0.4911 -0.8710 -0.0138
vn 0.3171 -0.6627 -0.6785
vn 0.7773 -0.5770 0.2509
vn -0.4864 -0.8721 0.0532
vn 0.0391 -0.8282 -0.5591
vn 0.7504 -0.6304 -0.1987
vn -0.6150 -0.6719 -0.4126
vn 0.2740 -0.7377 0.6170
vn -0.8717 -0.3543 0.3384
vn -0.5961 -0.1822 -0.7819
vn 0.4637 -0.1469 -0.8737
vn 0.4247 -0.8495 0.3131
vn -0.2628 -0.6774 0.6871
vn -0.8389 -0.2789 -0.4673
vn 0.3453 -0.3197 -0.8824
vn 0.8464 -0.4137 -0.3352
vn 0.2464 -0.2379 0.9395
vn -0.8457 -0.4066 0.3456
vn -0.5307 -0.5438 -0.6501
vn 0.4081 -0.5123 -0.7557
vn 0.9005 -0.2792 0.3334
vn -0.2326 -0.1769 0.9564
vn -0.3188 0.9347 0.1573
vn 0.8858 0.3209 0.3353
vn -0.4047 0.2786 0.8710
vn -0.8333 -0.4460 -0.3266
vn 0.9083 0.2486 -0.3363
vn 0.3038 0.2861 0.9088
vn -0.9122 -0.2437 0.3295
vn -0.3648 -0.5223 -0.7708
vn 0.6095 0.7351 -0.2970
vn -0.1999 0.8498 -0.4878
vn 0.2746 0.6916 -0.6681
vn 0.7872 0.5042 0.3551
vn -0.3370 0.7522 0.5663
vn -0.3399 0.9352 -0.0995
vn 0.7420 0.5796 -0.3370
vn 0.3014 0.5663 0.7671
vn 0.2086 -0.7769 -0.5941
vn 0.1952 0.7278 0.6575
vn -0.8103 0.5836 0.0529
vn -0.2323 0.7276 -0.6455
vn 0.2224 0.7930 -0.5671
vn 0.6084 0.7544 0.2466
vn -0.2988 0.4474 0.8430
vn -0.7893 0.6042 -0.1095
vn 0.2928 -0.5667 -0.7701
vn 0.5614 -0.8190 0.1186
vn -0.3840 -0.9051 0.1825
vn -0.0368 -0.9406 -0.3376
vn 0.5987 -0.7959 -0.0901
vn 0.2155 -0.8766 0.4303
vn -0.1694 -0.9242 0.3422
vn -0.3080 -0.9483 -0.0773
vn 0.3150 -0.6224 0.7165
vn 0.5876 -0.7458 0.3138
vn -0.3282 -0.4364 0.8378
vn -0.8815 -0.3839 -0.2751
vn 0.6859 -0.6689 -0.2866
vn 0.2986 -0.6773 0.6724
vn -0.9250 -0.2977 0.2360
vn -0.3379 -0.4635 -0.8191
vn 0.8781 -0.3183 -0.3573
vn -0.7901 -0.5337 0.3015
vn -0.4617 -0.2503 -0.8510
vn 0.3676 -0.4728 -0.8008
vn 0.6785 -0.6404 0.3599
vn -0.3484 -0.5984 0.7215
vn -0.8899 -0.2329 -0.3922
vn 0.7339 -0.5816 -0.3508
vn 0.9331 0.0319 0.3582
vn 0.3469 -0.2843 0.8938
vn -0.6997 -0.6570 0.2807
vn -0.3003 -0.7951 -0.5269
vn 0.3603 -0.5140 -0.7785
vn 0.8895 -0.2409 0.3883
vn -0.3816 -0.4246 0.8210
vn -0.2819 -0.9364 -0.2091
vn -0.5321 0.1776 -0.8279
vn -0.4339 0.3521 0.8293
vn -0.7787 0.5240 -0.3450
vn 0.8709 0.3602 -0.3344
vn 0.3075 -0.1294 0.9427
vn -0.7965 0.4873 0.3579
vn -0.4155 0.6765 -0.6080
vn 0.3245 0.6461 -0.6908
vn 0.5794 0.7964 -0.1732
vn 0.4157 0.4465 -0.7923
vn 0.5454 0.8272 0.1348
vn -0.4047 0.3854 0.8293
vn -0.8706 0.2405 -0.4292
vn 0.6185 0.7552 -0.2173
vn 0.1348 0.7643 0.6306
vn -0.8699 0.2772 0.4081
vn -0.5383 0.8208 -0.1911
vn 0.1310 0.8123 0.5683
vn -0.3773 0.9131 0.1548
vn -0.2369 0.8601 -0.4517
vn -0.2372 0.8602 -0.4515
vn -0.2371 0.8602 -0.4516
vn 0.2569 0.8064 -0.5327
vn 0.5860 0.7971 0.1458
vn -0.1729 0.8828 0.4367
vn -0.3692 0.9188 -0.1394
vn -0.1329 -0.9869 0.0913
vn 0.3811 0.9218 -0.0704
vn 0.0184 0.9052 0.4245
vn -0.5503 0.8146 0.1830
vn -0.2375 0.8602 -0.4512
vn 0.2078 0.9112 -0.3557
vn 0.3960 0.9180 0.0208
vn -0.1601 0.8342 0.5278
vn -0.6078 -0.7864 0.1107
vn -0.0888 -0.9943 0.0581
vn 0.0992 -0.9553 -0.2786
vn 0.2934 -0.9477 0.1259
vn -0.0625 -0.9980 0.0093
vn -0.0012 -0.9913 -0.1317
vn 0.3272 -0.9279 -0.1786
vn 0.0932 -0.9682 0.2322
vn 0.9092 -0.0882 -0.4070
vn -0.2905 -0.5819 -0.7596
vn 0.2394 -0.6406 -0.7296
vn 0.3363 -0.9325 0.1318
vn -0.0106 -0.9516 0.3071
vn -0.6558 -0.7333 -0.1796
vn 0.3888 -0.9167 -0.0921
vn 0.1095 -0.9190 0.3787
vn -0.1697 0.8879 0.4275
vn 0.3131 -0.1494 0.9379
vn -0.9395 -0.0826 0.3325
vn -0.4932 0.0126 -0.8698
vn 0.4676 -0.0311 -0.8834
vn 0.9246 -0.1561 0.3476
vn -0.2119 -0.1704 0.9623
vn -0.8952 -0.0102 -0.4456
vn 0.1404 0.8681 -0.4762
vn -0.3852 0.8888 -0.2484
vn 0.5654 0.7871 -0.2464
vn 0.1677 0.8639 0.4749
vn -0.3791 0.9030 0.2024
vn -0.3120 0.8249 -0.4714
vn 0.3004 0.7854 -0.5413
vn 0.5105 0.8397 0.1852
vn 0.1229 0.8239 0.5532
vn 0.3664 0.9278 0.0709
vn -0.1360 0.8440 0.5189
vn -0.6904 0.6950 -0.2009
vn 0.3492 0.9355 -0.0542
vn 0.0882 0.8964 0.4343
vn -0.6945 0.6966 0.1801
vn -0.2230 0.7613 -0.6088
vn 0.9220 0.2720 -0.2755
vn -0.6084 0.7744 -0.1735
vn -0.0692 0.8985 -0.4335
vn 0.1837 0.8825 -0.4330
vn 0.4751 0.8740 0.1016
vn -0.0178 0.7217 0.6920
vn -0.6645 0.7411 0.0964
vn 0.4766 0.8715 -0.1156
vn 0.8801 0.4354 0.1893
vn -0.1192 0.6349 0.7633
vn -0.5309 0.8210 -0.2099
vn -0.3910 0.7031 -0.5940
vn 0.3806 0.4640 -0.7999
vn 0.8946 0.2451 0.3737
vn 0.1559 0.6845 0.7121
vn -0.4537 0.8116 0.3680
vn -0.3925 0.4995 0.7723
vn -0.8511 0.4883 -0.1928
vn 0.8814 0.4435 -0.1624
vn -0.1253 0.5014 0.8561
vn -0.8608 0.5070 -0.0439
vn -0.5842 0.4911 -0.6462
vn 0.3156 0.5385 -0.7813
# 223 vertex normals

vt 0.5000 1.0000 0.0000
vt 0.8536 0.8536 0.0000
vt 1.0000 0.5000 0.0000
vt 0.8536 0.1464 0.0000
vt 0.5000 0.0000 0.0000
vt 0.1464 0.1464 0.0000
vt 0.0000 0.5000 0.0000
vt 0.1464 0.8536 0.0000
# 8 texture coords

o Circle_007
g Circle_007
usemtl wire_204204204
s off
f 1/1/1 2/2/1 3/3/1 
f 1/1/1 3/3/1 4/4/1 
f 1/1/1 4/4/1 5/5/1 
f 1/1/1 5/5/1 6/6/1 
f 1/1/1 6/6/1 7/7/1 
f 1/1/1 7/7/1 8/8/1 
f 9/2/2 10/1/2 11/1/2 
f 11/1/2 12/2/2 9/2/2 
f 3/3/3 2/2/3 9/2/3 
f 9/2/3 13/3/3 3/3/3 
f 5/5/4 4/4/4 14/4/4 
f 14/4/4 15/5/4 5/5/4 
f 7/7/5 6/6/5 16/6/5 
f 16/6/5 17/7/5 7/7/5 
f 1/1/6 8/8/6 18/8/6 
f 18/8/6 10/1/6 1/1/6 
f 2/2/7 1/1/7 10/1/7 
f 10/1/7 9/2/7 2/2/7 
f 4/4/8 3/3/8 13/3/8 
f 13/3/8 14/4/8 4/4/8 
f 6/6/9 5/5/9 15/5/9 
f 15/5/9 16/6/9 6/6/9 
f 8/8/10 7/7/10 17/7/10 
f 17/7/10 18/8/10 8/8/10 
f 19/5/11 20/4/11 21/4/11 
f 21/4/11 22/5/11 19/5/11 
f 14/4/12 13/3/12 23/3/12 
f 23/3/12 20/4/12 14/4/12 
f 16/6/13 15/5/13 19/5/13 
f 19/5/13 24/6/13 16/6/13 
f 18/8/14 17/7/14 25/7/14 
f 25/7/14 26/8/14 18/8/14 
f 13/3/15 9/2/15 12/2/15 
f 12/2/15 23/3/15 13/3/15 
f 15/5/16 14/4/16 20/4/16 
f 20/4/16 19/5/16 15/5/16 
f 17/7/17 16/6/17 24/6/17 
f 24/6/17 25/7/17 17/7/17 
f 10/1/18 18/8/18 26/8/18 
f 26/8/18 11/1/18 10/1/18 
f 27/3/19 28/2/19 29/2/19 
f 29/2/19 30/3/19 27/3/19 
f 25/7/20 24/6/20 31/6/20 
f 31/6/20 32/7/20 25/7/20 
f 11/1/21 26/8/21 33/8/21 
f 33/8/21 34/1/21 11/1/21 
f 12/2/22 11/1/22 34/1/22 
f 34/1/22 28/2/22 12/2/22 
f 20/4/23 23/3/23 27/3/23 
f 27/3/23 21/4/23 20/4/23 
f 24/6/24 19/5/24 22/5/24 
f 22/5/24 31/6/24 24/6/24 
f 26/8/25 25/7/25 32/7/25 
f 32/7/25 33/8/25 26/8/25 
f 23/3/26 12/2/26 28/2/26 
f 28/2/26 27/3/26 23/3/26 
f 35/4/27 30/3/27 36/3/27 
f 36/3/27 37/4/27 35/4/27 
f 22/5/28 21/4/28 35/4/28 
f 35/4/28 38/5/28 22/5/28 
f 32/7/29 31/6/29 39/6/29 
f 39/6/29 40/7/29 32/7/29 
f 34/1/30 33/8/30 41/8/31 
f 41/8/31 42/1/32 34/1/30 
f 28/2/33 34/1/33 42/1/34 
f 42/1/34 29/2/35 28/2/33 
f 21/4/36 27/3/36 30/3/36 
f 30/3/36 35/4/36 21/4/36 
f 31/6/37 22/5/37 38/5/37 
f 38/5/37 39/6/37 31/6/37 
f 33/8/38 32/7/38 40/7/38 
f 40/7/38 41/8/38 33/8/38 
f 43/1/39 44/8/39 45/8/39 
f 45/8/39 46/1/39 43/1/39 
f 39/6/40 38/5/40 47/5/40 
f 47/5/40 48/6/40 39/6/40 
f 41/8/41 40/7/41 49/7/41 
f 49/7/41 44/8/41 41/8/41 
f 30/3/42 29/2/42 50/2/42 
f 50/2/42 36/3/42 30/3/42 
f 38/5/43 35/4/43 37/4/43 
f 37/4/43 47/5/43 38/5/43 
f 40/7/44 39/6/44 48/6/44 
f 48/6/44 49/7/44 40/7/44 
f 42/1/32 41/8/31 44/8/45 
f 44/8/45 43/1/45 42/1/32 
f 29/2/35 42/1/34 43/1/46 
f 43/1/46 50/2/46 29/2/35 
f 51/3/47 52/2/47 53/2/47 
f 53/2/47 54/3/47 51/3/47 
f 50/2/48 43/1/48 46/1/48 
f 46/1/48 52/2/48 50/2/48 
f 37/4/49 36/3/49 51/3/49 
f 51/3/49 55/4/49 37/4/49 
f 48/6/50 47/5/50 56/5/50 
f 56/5/50 57/6/50 48/6/50 
f 44/8/51 49/7/51 58/7/51 
f 58/7/51 45/8/51 44/8/51 
f 36/3/52 50/2/52 52/2/52 
f 52/2/52 51/3/52 36/3/52 
f 47/5/53 37/4/53 55/4/53 
f 55/4/53 56/5/53 47/5/53 
f 49/7/54 48/6/54 57/6/54 
f 57/6/54 58/7/54 49/7/54 
f 59/8/55 60/7/55 61/7/55 
f 61/7/55 62/8/55 59/8/55 
f 56/5/56 55/4/56 63/4/56 
f 63/4/56 64/5/56 56/5/56 
f 58/7/57 57/6/57 65/6/57 
f 65/6/57 60/7/57 58/7/57 
f 46/1/58 45/8/58 59/8/58 
f 59/8/58 66/1/58 46/1/58 
f 52/2/59 46/1/59 66/1/59 
f 66/1/59 53/2/59 52/2/59 
f 55/4/60 51/3/60 54/3/60 
f 54/3/60 63/4/60 55/4/60 
f 57/6/61 56/5/61 64/5/61 
f 64/5/61 65/6/61 57/6/61 
f 45/8/62 58/7/62 60/7/62 
f 60/7/62 59/8/62 45/8/62 
f 67/2/63 68/1/63 69/1/63 
f 69/1/63 70/2/63 67/2/63 
f 54/3/64 53/2/64 67/2/64 
f 67/2/64 71/3/64 54/3/64 
f 64/5/65 63/4/65 72/4/65 
f 72/4/65 73/5/65 64/5/65 
f 60/7/66 65/6/66 74/6/66 
f 74/6/66 61/7/66 60/7/66 
f 66/1/67 59/8/67 62/8/67 
f 62/8/67 68/1/67 66/1/67 
f 53/2/68 66/1/68 68/1/68 
f 68/1/68 67/2/68 53/2/68 
f 63/4/69 54/3/69 71/3/69 
f 71/3/69 72/4/69 63/4/69 
f 65/6/70 64/5/70 73/5/70 
f 73/5/70 74/6/70 65/6/70 
f 75/7/71 76/6/71 77/6/71 
f 77/6/71 78/7/71 75/7/71 
f 72/4/72 71/3/72 79/3/72 
f 79/3/72 80/4/72 72/4/72 
f 74/6/73 73/5/73 81/5/73 
f 81/5/73 76/6/73 74/6/73 
f 62/8/74 61/7/74 75/7/74 
f 75/7/74 82/8/74 62/8/74 
f 71/3/75 67/2/75 70/2/75 
f 70/2/75 79/3/75 71/3/75 
f 73/5/76 72/4/76 80/4/76 
f 80/4/76 81/5/76 73/5/76 
f 61/7/77 74/6/77 76/6/77 
f 76/6/77 75/7/77 61/7/77 
f 68/1/78 62/8/78 82/8/78 
f 82/8/78 69/1/78 68/1/78 
f 83/3/79 84/2/79 85/2/79 
f 85/2/79 86/3/79 83/3/79 
f 69/1/80 82/8/80 87/8/80 
f 87/8/80 88/1/80 69/1/80 
f 70/2/81 69/1/81 88/1/81 
f 88/1/81 84/2/81 70/2/81 
f 80/4/82 79/3/82 83/3/82 
f 83/3/82 89/4/82 80/4/82 
f 76/6/83 81/5/83 90/5/83 
f 90/5/83 77/6/83 76/6/83 
f 82/8/84 75/7/84 78/7/84 
f 78/7/84 87/8/84 82/8/84 
f 79/3/85 70/2/85 84/2/85 
f 84/2/85 83/3/85 79/3/85 
f 81/5/86 80/4/86 89/4/86 
f 89/4/86 90/5/86 81/5/86 
f 91/6/87 92/5/87 93/5/87 
f 93/5/87 94/6/87 91/6/87 
f 90/5/88 89/4/88 95/4/88 
f 95/4/88 92/5/88 90/5/88 
f 78/7/89 77/6/89 91/6/89 
f 91/6/89 96/7/89 78/7/89 
f 88/1/90 87/8/90 97/8/90 
f 97/8/90 98/1/90 88/1/90 
f 84/2/91 88/1/91 98/1/91 
f 98/1/91 85/2/91 84/2/91 
f 89/4/92 83/3/92 86/3/92 
f 86/3/92 95/4/92 89/4/92 
f 77/6/93 90/5/93 92/5/93 
f 92/5/93 91/6/93 77/6/93 
f 87/8/94 78/7/94 96/7/94 
f 96/7/94 97/8/94 87/8/94 
f 99/2/95 100/1/95 101/1/95 
f 101/1/95 102/2/95 99/2/95 
f 97/8/96 96/7/96 103/7/96 
f 103/7/96 104/8/96 97/8/96 
f 86/3/97 85/2/97 99/2/97 
f 99/2/97 105/3/97 86/3/97 
f 92/5/98 95/4/98 106/4/98 
f 106/4/98 93/5/98 92/5/98 
f 96/7/99 91/6/99 94/6/99 
f 94/6/99 103/7/99 96/7/99 
f 98/1/100 97/8/100 104/8/100 
f 104/8/100 100/1/100 98/1/100 
f 85/2/101 98/1/101 100/1/101 
f 100/1/101 99/2/101 85/2/101 
f 95/4/102 86/3/102 105/3/102 
f 105/3/102 106/4/102 95/4/102 
f 107/5/103 108/4/103 109/4/103 
f 109/4/103 110/5/103 107/5/103 
f 106/4/104 105/3/104 111/3/104 
f 111/3/104 108/4/104 106/4/104 
f 94/6/105 93/5/105 107/5/105 
f 107/5/105 112/6/105 94/6/105 
f 104/8/106 103/7/106 113/7/106 
f 113/7/106 114/8/106 104/8/106 
f 105/3/107 99/2/107 102/2/107 
f 102/2/107 111/3/107 105/3/107 
f 93/5/108 106/4/108 108/4/108 
f 108/4/108 107/5/108 93/5/108 
f 103/7/109 94/6/109 112/6/109 
f 112/6/109 113/7/109 103/7/109 
f 100/1/110 104/8/110 114/8/110 
f 114/8/110 101/1/110 100/1/110 
f 115/3/111 116/2/111 117/2/111 
f 117/2/111 118/3/111 115/3/111 
f 113/7/112 112/6/112 119/6/112 
f 119/6/112 120/7/112 113/7/112 
f 101/1/113 114/8/113 121/8/113 
f 121/8/113 122/1/113 101/1/113 
f 102/2/114 101/1/114 122/1/114 
f 122/1/114 116/2/114 102/2/114 
f 108/4/115 111/3/115 115/3/115 
f 115/3/115 109/4/115 108/4/115 
f 112/6/116 107/5/116 110/5/116 
f 110/5/116 119/6/116 112/6/116 
f 114/8/117 113/7/117 120/7/117 
f 120/7/117 121/8/117 114/8/117 
f 111/3/118 102/2/118 116/2/118 
f 116/2/118 115/3/118 111/3/118 
f 123/4/119 118/3/119 124/3/119 
f 124/3/119 125/4/119 123/4/119 
f 110/5/120 109/4/120 123/4/120 
f 123/4/120 126/5/120 110/5/120 
f 120/7/121 119/6/121 127/6/121 
f 127/6/121 128/7/121 120/7/121 
f 122/1/122 121/8/122 129/8/122 
f 129/8/122 130/1/122 122/1/122 
f 116/2/123 122/1/123 130/1/123 
f 130/1/123 117/2/123 116/2/123 
f 109/4/124 115/3/124 118/3/124 
f 118/3/124 123/4/124 109/4/124 
f 119/6/125 110/5/125 126/5/125 
f 126/5/125 127/6/125 119/6/125 
f 121/8/126 120/7/126 128/7/126 
f 128/7/126 129/8/126 121/8/126 
f 131/1/127 132/8/127 133/8/127 
f 133/8/127 134/1/127 131/1/127 
f 127/6/128 126/5/128 135/5/128 
f 135/5/128 136/6/128 127/6/128 
f 129/8/129 128/7/129 137/7/129 
f 137/7/129 132/8/129 129/8/129 
f 118/3/130 117/2/130 138/2/130 
f 138/2/130 124/3/130 118/3/130 
f 126/5/131 123/4/131 125/4/131 
f 125/4/131 135/5/131 126/5/131 
f 128/7/132 127/6/132 136/6/132 
f 136/6/132 137/7/132 128/7/132 
f 130/1/133 129/8/133 132/8/133 
f 132/8/133 131/1/133 130/1/133 
f 117/2/134 130/1/134 131/1/134 
f 131/1/134 138/2/134 117/2/134 
f 139/3/135 140/2/135 141/2/135 
f 141/2/135 142/3/135 139/3/135 
f 138/2/136 131/1/136 134/1/136 
f 134/1/136 140/2/136 138/2/136 
f 125/4/137 124/3/137 139/3/137 
f 139/3/137 143/4/137 125/4/137 
f 136/6/138 135/5/138 144/5/138 
f 144/5/138 145/6/138 136/6/138 
f 132/8/139 137/7/139 146/7/139 
f 146/7/139 133/8/139 132/8/139 
f 124/3/140 138/2/140 140/2/140 
f 140/2/140 139/3/140 124/3/140 
f 135/5/141 125/4/141 143/4/141 
f 143/4/141 144/5/141 135/5/141 
f 137/7/142 136/6/142 145/6/142 
f 145/6/142 146/7/142 137/7/142 
f 147/8/143 148/7/143 149/7/143 
f 149/7/143 150/8/143 147/8/143 
f 144/5/144 143/4/144 151/4/144 
f 151/4/144 152/5/144 144/5/144 
f 146/7/145 145/6/145 153/6/145 
f 153/6/145 148/7/145 146/7/145 
f 134/1/146 133/8/146 147/8/147 
f 147/8/147 154/1/148 134/1/146 
f 140/2/149 134/1/149 154/1/149 
f 154/1/149 141/2/149 140/2/149 
f 143/4/150 139/3/150 142/3/150 
f 142/3/150 151/4/150 143/4/150 
f 145/6/151 144/5/151 152/5/151 
f 152/5/151 153/6/151 145/6/151 
f 133/8/152 146/7/152 148/7/152 
f 148/7/152 147/8/152 133/8/152 
f 155/2/153 156/1/153 157/1/153 
f 157/1/153 158/2/153 155/2/153 
f 142/3/154 141/2/154 155/2/154 
f 155/2/154 159/3/154 142/3/154 
f 152/5/155 151/4/155 160/4/155 
f 160/4/155 161/5/155 152/5/155 
f 148/7/156 153/6/156 162/6/156 
f 162/6/156 149/7/156 148/7/156 
f 154/1/148 147/8/147 150/8/157 
f 150/8/157 156/1/157 154/1/148 
f 141/2/158 154/1/158 156/1/158 
f 156/1/158 155/2/158 141/2/158 
f 151/4/159 142/3/159 159/3/159 
f 159/3/159 160/4/159 151/4/159 
f 153/6/160 152/5/160 161/5/160 
f 161/5/160 162/6/160 153/6/160 
f 163/7/161 164/6/161 165/6/161 
f 165/6/161 166/7/161 163/7/161 
f 160/4/162 159/3/162 167/3/162 
f 167/3/162 168/4/162 160/4/162 
f 162/6/163 161/5/163 169/5/163 
f 169/5/163 164/6/163 162/6/163 
f 150/8/164 149/7/164 163/7/164 
f 163/7/164 170/8/164 150/8/164 
f 159/3/165 155/2/165 158/2/165 
f 158/2/165 167/3/165 159/3/165 
f 161/5/166 160/4/166 168/4/166 
f 168/4/166 169/5/166 161/5/166 
f 149/7/167 162/6/167 164/6/167 
f 164/6/167 163/7/167 149/7/167 
f 156/1/168 150/8/168 170/8/168 
f 170/8/168 157/1/168 156/1/168 
f 171/3/169 172/2/169 173/2/169 
f 173/2/169 174/3/169 171/3/169 
f 157/1/170 170/8/170 175/8/170 
f 175/8/170 176/1/170 157/1/170 
f 158/2/171 157/1/171 176/1/171 
f 176/1/171 172/2/171 158/2/171 
f 168/4/172 167/3/172 171/3/172 
f 171/3/172 177/4/172 168/4/172 
f 164/6/173 169/5/173 178/5/173 
f 178/5/173 165/6/173 164/6/173 
f 170/8/174 163/7/174 166/7/174 
f 166/7/174 175/8/174 170/8/174 
f 167/3/175 158/2/175 172/2/175 
f 172/2/175 171/3/175 167/3/175 
f 169/5/176 168/4/176 177/4/176 
f 177/4/176 178/5/176 169/5/176 
f 179/6/177 180/5/177 181/5/177 
f 181/5/177 182/6/177 179/6/177 
f 178/5/178 177/4/178 183/4/178 
f 183/4/178 180/5/178 178/5/178 
f 166/7/179 165/6/179 179/6/179 
f 179/6/179 184/7/179 166/7/179 
f 176/1/180 175/8/180 185/8/180 
f 185/8/180 186/1/180 176/1/180 
f 172/2/181 176/1/181 186/1/181 
f 186/1/181 173/2/181 172/2/181 
f 177/4/182 171/3/182 174/3/182 
f 174/3/182 183/4/182 177/4/182 
f 165/6/183 178/5/183 180/5/183 
f 180/5/183 179/6/183 165/6/183 
f 175/8/184 166/7/184 184/7/184 
f 184/7/184 185/8/184 175/8/184 
f 187/2/185 188/1/185 189/1/185 
f 189/1/185 190/2/185 187/2/185 
f 185/8/186 184/7/186 191/7/186 
f 191/7/186 192/8/186 185/8/186 
f 174/3/187 173/2/187 187/2/187 
f 187/2/187 193/3/187 174/3/187 
f 180/5/188 183/4/188 194/4/188 
f 194/4/188 181/5/188 180/5/188 
f 184/7/189 179/6/189 182/6/189 
f 182/6/189 191/7/189 184/7/189 
f 186/1/190 185/8/190 192/8/190 
f 192/8/190 188/1/190 186/1/190 
f 173/2/191 186/1/191 188/1/191 
f 188/1/191 187/2/191 173/2/191 
f 183/4/192 174/3/192 193/3/192 
f 193/3/192 194/4/192 183/4/192 
f 195/5/193 196/4/193 197/4/193 
f 197/4/193 198/5/193 195/5/193 
f 194/4/194 193/3/194 199/3/194 
f 199/3/194 196/4/194 194/4/194 
f 182/6/195 181/5/195 195/5/195 
f 195/5/195 200/6/195 182/6/195 
f 192/8/196 191/7/196 201/7/196 
f 201/7/196 202/8/196 192/8/196 
f 193/3/197 187/2/197 190/2/197 
f 190/2/197 199/3/197 193/3/197 
f 181/5/198 194/4/198 196/4/198 
f 196/4/198 195/5/198 181/5/198 
f 191/7/199 182/6/199 200/6/199 
f 200/6/199 201/7/199 191/7/199 
f 188/1/200 192/8/200 202/8/200 
f 202/8/200 189/1/200 188/1/200 
f 203/3/201 204/2/201 205/2/201 
f 205/2/201 206/3/201 203/3/201 
f 201/7/202 200/6/202 207/6/202 
f 207/6/202 208/7/202 201/7/202 
f 189/1/203 202/8/203 209/8/203 
f 209/8/203 210/1/203 189/1/203 
f 190/2/204 189/1/204 210/1/204 
f 210/1/204 204/2/204 190/2/204 
f 196/4/205 199/3/205 203/3/205 
f 203/3/205 197/4/205 196/4/205 
f 200/6/206 195/5/206 198/5/206 
f 198/5/206 207/6/206 200/6/206 
f 202/8/207 201/7/207 208/7/207 
f 208/7/207 209/8/207 202/8/207 
f 199/3/208 190/2/208 204/2/208 
f 204/2/208 203/3/208 199/3/208 
f 211/4/209 206/3/209 212/4/209 
f 198/5/210 197/4/210 211/4/210 
f 211/4/210 213/5/210 198/5/210 
f 208/7/211 207/6/211 214/6/211 
f 214/6/211 215/7/211 208/7/211 
f 210/1/212 209/8/212 216/8/212 
f 216/8/212 217/1/212 210/1/212 
f 204/2/213 210/1/213 217/1/213 
f 217/1/213 205/2/213 204/2/213 
f 197/4/214 203/3/214 206/3/214 
f 206/3/214 211/4/214 197/4/214 
f 207/6/215 198/5/215 213/5/215 
f 213/5/215 214/6/215 207/6/215 
f 209/8/216 208/7/216 215/7/216 
f 215/7/216 216/8/216 209/8/216 
f 214/6/217 213/5/217 212/6/217 
f 216/8/218 215/7/218 212/8/218 
f 206/3/219 205/2/219 212/3/219 
f 213/5/220 211/4/220 212/5/220 
f 215/7/221 214/6/221 212/7/221 
f 217/1/222 216/8/222 212/1/222 
f 205/2/223 217/1/223 212/2/223 
# 430 faces

