# 3ds Max Wavefront OBJ Exporter v0.99 - (c)2007 guruware
# File Created: 05.06.2021 21:43:25

mtllib pollito.mtl

#
# object chick
#

v  -13.3422 0.0000 11.9825
v  -13.6548 4.7430 17.4746
v  -18.3869 4.7430 12.3124
v  17.5229 4.7430 12.3124
v  12.7909 4.7430 17.4746
v  12.4782 0.0000 11.9825
v  -14.7949 29.8821 9.1181
v  -11.0138 29.8901 13.1060
v  -10.5942 34.5474 8.6959
v  9.7303 34.5474 8.6959
v  10.1499 29.8901 13.1060
v  13.9310 29.8821 9.1181
v  -14.7949 29.8821 -10.3197
v  -10.5942 34.5474 -9.8974
v  -11.0138 29.8901 -14.3922
v  10.1499 29.8901 -14.3922
v  9.7303 34.5474 -9.8974
v  13.9310 29.8821 -10.3197
v  -18.3869 4.7430 -12.8903
v  -13.6565 4.7430 -17.9785
v  -13.3422 0.0000 -12.5602
v  12.4782 0.0000 -12.5602
v  12.7926 4.7430 -17.9785
v  17.5229 4.7430 -12.8903
v  -14.3740 12.2101 -18.9555
v  -19.3534 12.2101 -13.5837
v  -17.9581 22.7753 -12.5892
v  -13.3530 22.7753 -17.5739
v  -19.3827 13.7969 13.0146
v  -14.3964 13.7969 18.6960
v  -13.2535 22.7753 16.9391
v  -17.8054 22.7753 11.9302
v  12.3896 22.7753 16.9391
v  13.5325 13.7969 18.6960
v  18.5188 13.7969 13.0146
v  16.9414 22.7753 11.9302
v  18.4895 12.2101 -13.5837
v  13.5083 12.2101 -18.9530
v  12.4887 22.7753 -17.5734
v  17.0942 22.7753 -12.5892
v  -0.4320 -0.9257 13.2770
v  -0.4320 4.0679 19.5911
v  -4.4973 35.2364 11.5148
v  -4.5079 33.4612 13.3546
v  -0.3153 38.2854 15.7114
v  -0.4320 36.0255 -11.3170
v  -0.4320 31.1765 -16.3061
v  -0.4320 2.5025 -19.7154
v  -0.4320 -0.9257 -13.8691
v  6.5358 39.2323 16.8567
v  -0.4320 16.3488 -20.6816
v  -0.4320 22.7753 -19.6768
v  -0.4320 22.7753 19.6005
v  -0.4320 31.1765 14.9889
v  -0.4320 12.4663 -21.2571
v  -8.9754 11.1476 -21.8433
v  5.4414 13.5918 19.7702
v  -0.4320 14.7249 27.7917
v  -0.4320 9.0763 20.0938
v  8.5086 11.2658 -21.7994
v  -19.5250 3.9857 -0.5472
v  -14.0647 -1.0384 -0.5496
v  18.6610 3.9857 -0.5472
v  13.2008 -1.0384 -0.5496
v  -15.8388 30.6985 -0.4835
v  -11.2481 35.5380 -0.4835
v  14.9749 30.6985 -0.4835
v  10.3841 35.5380 -0.4835
v  -20.7354 12.2101 -0.5428
v  -19.2958 22.7753 -0.5243
v  19.8715 12.2101 -0.5428
v  18.4319 22.7753 -0.5243
v  -0.4320 38.0021 -0.4835
v  -0.4320 -2.0466 -0.5496
v  -0.4320 36.0255 10.0878
v  8.1116 6.4424 -23.0730
v  -8.7943 6.5064 -23.0571
v  -4.3002 11.3609 -25.8029
v  3.4705 11.3980 -25.8268
v  -0.4320 13.7731 -29.3680
v  -0.4320 4.5142 -22.8055
v  10.1247 9.1385 -28.0040
v  9.4159 12.5873 -26.9236
v  -10.5265 12.4521 -26.7861
v  -11.2366 9.1377 -28.1356
v  3.5268 7.6747 -26.6882
v  -0.4320 10.1790 -31.2355
v  -4.5029 7.6527 -26.6197
v  -6.3053 13.5918 19.7702
v  -0.4320 19.4510 20.0306
v  2.8557 23.6235 20.5929
v  2.2107 21.6209 21.6417
v  5.1021 21.7934 22.4160
v  4.9817 24.4868 21.1043
v  2.9567 19.4473 21.1459
v  5.1181 18.8489 21.8509
v  7.1630 19.5169 20.9028
v  7.8891 21.7148 21.3135
v  7.0620 23.6931 20.3497
v  8.6791 21.3539 18.4438
v  7.6645 24.1572 18.1252
v  7.8008 18.5193 18.8718
v  6.9312 18.9590 16.7324
v  7.5762 20.9616 15.6835
v  6.8301 23.1352 16.1794
v  4.6848 20.7892 14.9093
v  4.6688 23.7336 15.4743
v  4.8051 18.0958 16.2210
v  2.7249 18.8894 16.9756
v  1.8977 20.8678 16.0118
v  2.6239 23.0657 16.4225
v  1.1078 21.2287 18.8815
v  1.9860 24.0633 18.4534
v  2.1224 18.4254 19.2001
v  4.9843 17.5327 19.1604
v  4.8025 25.0499 18.1649
v  -4.0542 19.3924 21.2033
v  -3.2399 21.5979 21.7131
v  -6.1960 21.8443 22.4961
v  -6.2819 18.8326 21.9178
v  -3.8479 23.6621 20.6379
v  -6.0035 24.5966 21.1544
v  -8.1483 23.8351 20.3756
v  -9.0455 21.8314 21.3591
v  -8.3546 19.5654 20.9410
v  -9.8531 21.4812 18.4201
v  -9.0247 18.5603 18.8608
v  -8.7463 24.3243 18.0975
v  -7.9113 23.2586 16.1090
v  -8.7255 21.0532 15.5992
v  -8.1175 18.9890 16.6745
v  -5.7694 20.8067 14.8163
v  -5.9620 18.0544 16.1579
v  -5.6835 23.8184 15.3946
v  -3.6109 23.0856 16.3713
v  -2.9200 20.8196 15.9533
v  -3.8172 18.8160 16.9367
v  -2.1124 21.1698 18.8922
v  -3.2192 18.3267 19.2149
v  -2.9407 24.0908 18.4515
v  -5.7971 25.1682 18.1473
v  -6.1683 17.4829 19.1651
# 142 vertices

vn -0.2672 -0.9282 0.2590
vn -0.3234 -0.4072 0.8542
vn -0.8875 -0.3712 0.2731
vn 0.8875 -0.3712 0.2731
vn 0.3234 -0.4072 0.8542
vn 0.2672 -0.9282 0.2590
vn -0.8126 0.5250 0.2531
vn -0.3539 0.5287 0.7715
vn -0.4105 0.8806 0.2367
vn 0.4569 0.8837 0.1016
vn 0.4099 0.4101 0.8148
vn 0.8126 0.5250 0.2531
vn -0.8123 0.5241 -0.2559
vn -0.3649 0.8717 -0.3271
vn -0.3097 0.5270 -0.7914
vn 0.3097 0.5270 -0.7915
vn 0.3649 0.8717 -0.3271
vn 0.8123 0.5241 -0.2560
vn -0.8790 -0.3961 -0.2655
vn -0.4483 -0.5695 -0.6890
vn -0.2757 -0.9305 -0.2413
vn 0.2757 -0.9305 -0.2413
vn 0.4498 -0.5744 -0.6840
vn 0.8790 -0.3960 -0.2655
vn -0.5191 0.0885 -0.8501
vn -0.9440 0.0225 -0.3293
vn -0.9093 0.2663 -0.3198
vn -0.3857 0.2793 -0.8794
vn -0.9474 0.0344 0.3183
vn -0.4025 0.0253 0.9151
vn -0.3816 0.3376 0.8604
vn -0.9055 0.2943 0.3059
vn 0.3816 0.3376 0.8604
vn 0.4025 0.0253 0.9151
vn 0.9474 0.0344 0.3183
vn 0.9055 0.2943 0.3059
vn 0.9439 0.0225 -0.3293
vn 0.5221 0.0883 -0.8483
vn 0.3857 0.2792 -0.8794
vn 0.9093 0.2663 -0.3199
vn 0.0000 -0.9515 0.3076
vn 0.0000 -0.4555 0.8902
vn -0.4022 0.8218 0.4036
vn -0.4518 0.6355 0.6261
vn 0.8574 0.5021 -0.1130
vn 0.0000 0.9178 -0.3970
vn 0.0000 0.5440 -0.8391
vn -0.0006 -0.8296 -0.5584
vn 0.0000 -0.9595 -0.2815
vn 0.0885 0.9875 -0.1306
vn -0.0003 0.2115 -0.9774
vn 0.0000 0.2698 -0.9629
vn 0.0000 0.3302 0.9439
vn -0.0079 0.3802 0.9249
vn -0.0037 0.6694 -0.7429
vn -0.5406 0.4042 -0.7378
vn 0.5464 -0.6752 0.4955
vn 0.0000 -0.8062 0.5916
vn 0.5484 0.3981 -0.7354
vn -0.9008 -0.4343 0.0047
vn -0.3012 -0.9535 0.0000
vn 0.9008 -0.4343 0.0047
vn 0.3012 -0.9535 0.0000
vn -0.8472 0.5313 0.0020
vn -0.4105 0.9118 -0.0000
vn 0.8472 0.5313 0.0020
vn 0.4105 0.9118 -0.0000
vn -0.9999 0.0148 0.0000
vn -0.9665 0.2567 -0.0028
vn 0.9999 0.0148 0.0000
vn 0.9665 0.2567 -0.0028
vn 0.0000 1.0000 -0.0000
vn 0.0000 -1.0000 0.0000
vn -0.0332 0.9935 0.1088
vn 0.1269 -0.3269 0.9365
vn -0.7108 0.5001 0.4947
vn -0.4117 -0.0855 0.9073
vn -0.2891 0.1595 0.9439
vn 0.9998 -0.0149 -0.0148
vn 0.4913 -0.6606 -0.5677
vn -0.4934 -0.6578 -0.5691
vn -0.2425 0.8000 -0.5489
vn 0.2269 0.8022 -0.5522
vn -0.0037 0.7898 -0.6134
vn -0.0017 -0.8502 -0.5265
vn 0.9636 -0.0389 0.2643
vn 0.6140 0.5817 -0.5335
vn -0.6518 0.5809 -0.4876
vn -0.9345 -0.0513 0.3522
vn 0.7636 0.2307 -0.6030
vn -0.7651 0.2408 -0.5972
vn 0.0832 -0.8505 -0.5193
vn -0.0885 -0.8555 -0.5102
vn -0.0017 -0.8766 -0.4813
vn -0.2307 0.2313 -0.9451
vn 0.1093 -0.8903 -0.4421
vn -0.1052 -0.9027 -0.4172
vn 0.2323 0.2590 -0.9375
vn -0.1613 0.0113 0.9868
vn 0.0000 -0.1256 0.9921
vn 0.1613 0.0113 0.9868
vn 0.0000 0.1678 0.9858
vn -0.5464 -0.6752 0.4955
vn 0.0000 0.8541 0.5201
vn 0.6585 0.6428 0.3914
vn -0.6585 0.6428 0.3914
vn -0.5584 0.6391 0.5289
vn -0.6669 0.0819 0.7406
vn 0.0550 0.1324 0.9897
vn 0.0220 0.7944 0.6070
vn -0.5307 -0.5053 0.6805
vn 0.0559 -0.6072 0.7926
vn 0.6219 -0.4862 0.6138
vn 0.7447 0.1053 0.6590
vn 0.5942 0.6582 0.4623
vn 0.9982 0.0165 -0.0577
vn 0.6889 0.7125 -0.1336
vn 0.7228 -0.6891 0.0520
vn 0.5584 -0.6391 -0.5289
vn 0.6669 -0.0819 -0.7406
vn 0.5307 0.5053 -0.6805
vn -0.0550 -0.1324 -0.9897
vn -0.0559 0.6072 -0.7926
vn -0.0220 -0.7944 -0.6070
vn -0.5942 -0.6582 -0.4623
vn -0.7447 -0.1053 -0.6590
vn -0.6219 0.4862 -0.6138
vn -0.9982 -0.0165 0.0577
vn -0.7228 0.6891 -0.0520
vn -0.6889 -0.7125 0.1336
vn 0.0240 -0.9911 0.1312
vn -0.0240 0.9911 -0.1312
vn 0.5165 -0.5177 0.6821
vn 0.6664 0.0662 0.7427
vn -0.0550 0.1337 0.9895
vn -0.0727 -0.6056 0.7924
vn 0.5717 0.6257 0.5307
vn -0.0050 0.7947 0.6070
vn -0.5799 0.6721 0.4605
vn -0.7441 0.1229 0.6567
vn -0.6352 -0.4713 0.6119
vn -0.9973 0.0401 -0.0608
vn -0.7390 -0.6718 0.0497
vn -0.6714 0.7286 -0.1357
vn -0.5165 0.5177 -0.6821
vn -0.6664 -0.0662 -0.7427
vn -0.5717 -0.6257 -0.5307
vn 0.0550 -0.1337 -0.9895
vn 0.0050 -0.7947 -0.6070
vn 0.0727 0.6056 -0.7924
vn 0.6352 0.4713 -0.6119
vn 0.7441 -0.1229 -0.6567
vn 0.5799 -0.6721 -0.4605
vn 0.9973 -0.0401 0.0608
vn 0.6714 -0.7286 0.1357
vn 0.7390 0.6718 -0.0497
vn 0.0478 0.9902 -0.1311
vn -0.0478 -0.9902 0.1311
# 158 vertex normals

vt 0.4541 0.6485 0.0000
vt 0.4564 0.6621 0.0000
vt 0.4543 0.6621 0.0000
vt 0.4543 0.6609 0.0000
vt 0.4564 0.6610 0.0000
vt 0.4541 0.6384 0.0000
vt 0.4360 0.8492 0.0000
vt 0.4342 0.8491 0.0000
vt 0.4363 0.8663 0.0000
vt 0.4363 0.8573 0.0000
vt 0.4342 0.8480 0.0000
vt 0.4360 0.8480 0.0000
vt 0.4504 0.8492 0.0000
vt 0.4501 0.8663 0.0000
vt 0.4522 0.8491 0.0000
vt 0.4522 0.8480 0.0000
vt 0.4501 0.8573 0.0000
vt 0.4504 0.8480 0.0000
vt 0.4383 0.6621 0.0000
vt 0.4362 0.6621 0.0000
vt 0.4385 0.6485 0.0000
vt 0.4385 0.6384 0.0000
vt 0.4362 0.6610 0.0000
vt 0.4383 0.6609 0.0000
vt 0.3883 0.7195 0.0000
vt 0.3906 0.7195 0.0000
vt 0.3908 0.7840 0.0000
vt 0.3886 0.7840 0.0000
vt 0.4078 0.7195 0.0000
vt 0.4095 0.7195 0.0000
vt 0.4096 0.7840 0.0000
vt 0.4075 0.7840 0.0000
vt 0.4123 0.7840 0.0000
vt 0.4119 0.7195 0.0000
vt 0.4143 0.7195 0.0000
vt 0.4144 0.7840 0.0000
vt 0.4314 0.7195 0.0000
vt 0.4334 0.7195 0.0000
vt 0.4333 0.7840 0.0000
vt 0.4311 0.7840 0.0000
vt 0.4081 0.8487 0.0000
vt 0.4063 0.8487 0.0000
vt 0.4156 0.8487 0.0000
vt 0.4138 0.8487 0.0000
vt 0.3901 0.8487 0.0000
vt 0.3919 0.8487 0.0000
vt 0.4318 0.8487 0.0000
vt 0.4300 0.8487 0.0000
vt 0.3892 0.6701 0.0000
vt 0.3931 0.6701 0.0000
vt 0.4019 0.6701 0.0000
vt 0.4079 0.6701 0.0000
vt 0.4133 0.6701 0.0000
vt 0.4171 0.6701 0.0000
vt 0.4272 0.6701 0.0000
vt 0.4292 0.6701 0.0000
vt 0.4549 0.6435 0.0000
vt 0.4573 0.6615 0.0000
vt 0.4354 0.8598 0.0000
vt 0.4345 0.8529 0.0000
vt 0.4347 0.9498 0.0000
vt 0.4511 0.8618 0.0000
vt 0.4534 0.8486 0.0000
vt 0.4352 0.6615 0.0000
vt 0.4377 0.6435 0.0000
vt 0.4348 0.9493 0.0000
vt 0.4435 0.7195 0.0000
vt 0.4436 0.7849 0.0000
vt 0.4351 0.7849 0.0000
vt 0.4352 0.7195 0.0000
vt 0.4524 0.7195 0.0000
vt 0.4521 0.7849 0.0000
vt 0.4630 0.7849 0.0000
vt 0.4630 0.8487 0.0000
vt 0.4556 0.8487 0.0000
vt 0.4545 0.7849 0.0000
vt 0.4509 0.8487 0.0000
vt 0.4436 0.8487 0.0000
vt 0.4363 0.8487 0.0000
vt 0.4714 0.7849 0.0000
vt 0.4703 0.8487 0.0000
vt 0.4437 0.7095 0.0000
vt 0.4470 0.7810 0.0000
vt 0.3277 0.7165 0.0000
vt 0.3149 0.7175 0.0000
vt 0.3148 0.6453 0.0000
vt 0.4406 0.7800 0.0000
vt 0.4462 0.6621 0.0000
vt 0.4461 0.6485 0.0000
vt 0.4462 0.6610 0.0000
vt 0.4461 0.6385 0.0000
vt 0.4434 0.8491 0.0000
vt 0.4434 0.8662 0.0000
vt 0.4434 0.8480 0.0000
vt 0.4434 0.8573 0.0000
vt 0.3989 0.7195 0.0000
vt 0.3990 0.7840 0.0000
vt 0.4229 0.7195 0.0000
vt 0.4229 0.7840 0.0000
vt 0.4229 0.8487 0.0000
vt 0.3990 0.8487 0.0000
vt 0.3987 0.6701 0.0000
vt 0.4224 0.6701 0.0000
vt 0.4434 0.8846 0.0000
vt 0.4461 0.6289 0.0000
vt 0.4353 0.8618 0.0000
vt 0.4264 0.9493 0.0000
vt 0.4247 0.8486 0.0000
vt 0.4259 0.8480 0.0000
vt 0.4330 0.8486 0.0000
vt 0.4197 0.8486 0.0000
vt 0.4215 0.9498 0.0000
vt 0.4213 0.8529 0.0000
vt 0.4209 0.8491 0.0000
vt 0.4387 0.6701 0.0000
vt 0.4407 0.6848 0.0000
vt 0.4505 0.6701 0.0000
vt 0.4482 0.6833 0.0000
vt 0.4449 0.7744 0.0000
vt 0.4431 0.7740 0.0000
vt 0.4440 0.8964 0.0000
vt 0.4428 0.6701 0.0000
vt 0.4432 0.6795 0.0000
vt 0.4407 0.5912 0.0000
vt 0.4482 0.5912 0.0000
vt 0.4420 0.6882 0.0000
vt 0.4420 0.9005 0.0000
vt 0.4459 0.9012 0.0000
vt 0.4466 0.6870 0.0000
vt 0.4429 0.6881 0.0000
vt 0.4437 0.6881 0.0000
vt 0.4451 0.6876 0.0000
vt 0.4429 0.5945 0.0000
vt 0.4453 0.5944 0.0000
vt 0.4437 0.5757 0.0000
vt 0.4420 0.5757 0.0000
vt 0.4466 0.5757 0.0000
vt 0.4588 0.7195 0.0000
vt 0.4546 0.7195 0.0000
vt 0.4569 0.6701 0.0000
vt 0.4629 0.6948 0.0000
vt 0.4628 0.6701 0.0000
vt 0.4673 0.7195 0.0000
vt 0.4717 0.7195 0.0000
vt 0.4705 0.6701 0.0000
vt 0.4629 0.7522 0.0000
vt 0.3030 0.7165 0.0000
vt 0.3151 0.8963 0.0000
vt 0.3149 0.8030 0.0000
vt 0.3277 0.8020 0.0000
vt 0.3030 0.8020 0.0000
vt 0.7734 0.8718 0.0000
vt 0.7731 0.7919 0.0000
vt 0.7785 0.7919 0.0000
vt 0.7785 0.8718 0.0000
vt 0.7734 0.7295 0.0000
vt 0.7785 0.7295 0.0000
vt 0.7836 0.7295 0.0000
vt 0.7839 0.7919 0.0000
vt 0.7836 0.8718 0.0000
vt 0.7893 0.7919 0.0000
vt 0.7893 0.8718 0.0000
vt 0.7893 0.7295 0.0000
vt 0.7947 0.7295 0.0000
vt 0.7947 0.7919 0.0000
vt 0.7947 0.8718 0.0000
vt 0.8001 0.7919 0.0000
vt 0.8001 0.8718 0.0000
vt 0.8001 0.7295 0.0000
vt 0.8047 0.7295 0.0000
vt 0.8063 0.7919 0.0000
vt 0.8047 0.8718 0.0000
vt 0.7631 0.8718 0.0000
vt 0.7615 0.7919 0.0000
vt 0.7677 0.7919 0.0000
vt 0.7677 0.8718 0.0000
vt 0.7631 0.7295 0.0000
vt 0.7677 0.7295 0.0000
vt 0.7750 0.7304 0.0000
vt 0.7739 0.7295 0.0000
vt 0.7801 0.6918 0.0000
vt 0.7801 0.7304 0.0000
vt 0.7755 0.7287 0.0000
vt 0.7801 0.7284 0.0000
vt 0.7847 0.7287 0.0000
vt 0.7863 0.7295 0.0000
vt 0.7853 0.7304 0.0000
vt 0.7739 0.8727 0.0000
vt 0.7723 0.8720 0.0000
vt 0.7785 0.9102 0.0000
vt 0.7785 0.8729 0.0000
vt 0.7734 0.8712 0.0000
vt 0.7785 0.8713 0.0000
vt 0.7836 0.8712 0.0000
vt 0.7847 0.8720 0.0000
vt 0.7831 0.8727 0.0000
vt 0.8482 0.7295 0.0000
vt 0.8485 0.8093 0.0000
vt 0.8431 0.8093 0.0000
vt 0.8431 0.7295 0.0000
vt 0.8482 0.8718 0.0000
vt 0.8431 0.8718 0.0000
vt 0.8379 0.8718 0.0000
vt 0.8377 0.8093 0.0000
vt 0.8379 0.7295 0.0000
vt 0.8323 0.8093 0.0000
vt 0.8323 0.7295 0.0000
vt 0.8323 0.8718 0.0000
vt 0.8269 0.8718 0.0000
vt 0.8269 0.8093 0.0000
vt 0.8269 0.7295 0.0000
vt 0.8215 0.8093 0.0000
vt 0.8215 0.7295 0.0000
vt 0.8215 0.8718 0.0000
vt 0.8169 0.8718 0.0000
vt 0.8153 0.8093 0.0000
vt 0.8169 0.7295 0.0000
vt 0.8584 0.7295 0.0000
vt 0.8600 0.8093 0.0000
vt 0.8539 0.8093 0.0000
vt 0.8539 0.7295 0.0000
vt 0.8584 0.8718 0.0000
vt 0.8539 0.8718 0.0000
vt 0.8374 0.8712 0.0000
vt 0.8385 0.8721 0.0000
vt 0.8323 0.9102 0.0000
vt 0.8323 0.8712 0.0000
vt 0.8369 0.8728 0.0000
vt 0.8323 0.8730 0.0000
vt 0.8277 0.8728 0.0000
vt 0.8261 0.8721 0.0000
vt 0.8271 0.8712 0.0000
vt 0.8357 0.7287 0.0000
vt 0.8374 0.7295 0.0000
vt 0.8312 0.6918 0.0000
vt 0.8312 0.7285 0.0000
vt 0.8363 0.7304 0.0000
vt 0.8312 0.7304 0.0000
vt 0.8260 0.7304 0.0000
vt 0.8250 0.7295 0.0000
vt 0.8266 0.7287 0.0000
# 241 texture coords

o chick
g chick
usemtl pollito_lambert3SG
s 1
f 1/1/1 2/2/2 3/3/3 
f 4/4/4 5/5/5 6/6/6 
f 7/7/7 8/8/8 9/9/9 
f 10/10/10 11/11/11 12/12/12 
f 13/13/13 14/14/14 15/15/15 
f 16/16/16 17/17/17 18/18/18 
f 19/19/19 20/20/20 21/21/21 
f 22/22/22 23/23/23 24/24/24 
f 25/25/25 26/26/26 27/27/27 
f 27/27/27 28/28/28 25/25/25 
f 29/29/29 30/30/30 31/31/31 
f 31/31/31 32/32/32 29/29/29 
f 33/33/33 34/34/34 35/35/35 
f 35/35/35 36/36/36 33/33/33 
f 37/37/37 38/38/38 39/39/39 
f 39/39/39 40/40/40 37/37/37 
f 32/32/32 31/31/31 8/41/8 
f 8/41/8 7/42/7 32/32/32 
f 36/36/36 12/43/12 11/44/11 
f 11/44/11 33/33/33 36/36/36 
f 15/45/15 28/28/28 27/27/27 
f 27/27/27 13/46/13 15/45/15 
f 16/47/16 18/48/18 40/40/40 
f 40/40/40 39/39/39 16/47/16 
f 26/26/26 25/25/25 20/49/20 
f 20/49/20 19/50/19 26/26/26 
f 29/29/29 3/51/3 2/52/2 
f 2/52/2 30/30/30 29/29/29 
f 35/35/35 34/34/34 5/53/5 
f 5/53/5 4/54/4 35/35/35 
f 37/37/37 24/55/24 23/56/23 
f 23/56/23 38/38/38 37/37/37 
f 2/2/2 1/1/1 41/57/41 
f 41/57/41 42/58/42 2/2/2 
f 43/59/43 44/60/44 45/61/45 
f 14/14/14 46/62/46 47/63/47 
f 47/63/47 15/15/15 14/14/14 
f 20/20/20 48/64/48 49/65/49 
f 49/65/49 21/21/21 20/20/20 
f 10/10/10 50/66/50 11/11/11 
f 47/63/47 46/62/46 17/17/17 
f 17/17/17 16/16/16 47/63/47 
f 48/64/48 23/23/23 22/22/22 
f 22/22/22 49/65/49 48/64/48 
f 41/57/41 6/6/6 5/5/5 
f 5/5/5 42/58/42 41/57/41 
f 51/67/51 52/68/52 39/69/39 
f 39/69/39 38/70/38 51/67/51 
f 51/67/51 25/71/25 28/72/28 
f 28/72/28 52/68/52 51/67/51 
f 53/73/53 54/74/54 8/75/8 
f 8/75/8 31/76/31 53/73/53 
f 15/77/15 47/78/47 52/68/52 
f 52/68/52 28/72/28 15/77/15 
f 52/68/52 47/78/47 16/79/16 
f 16/79/16 39/69/39 52/68/52 
f 53/73/53 33/80/33 11/81/11 
f 11/81/11 54/74/54 53/73/53 
f 51/67/51 55/82/55 56/83/56 
f 56/83/56 25/71/25 51/67/51 
s 13
f 57/84/57 58/85/58 59/86/58 
s 1
f 60/87/59 55/82/55 51/67/51 
f 51/67/51 38/70/38 60/87/59 
f 61/88/60 19/19/19 21/21/21 
f 21/21/21 62/89/61 61/88/60 
f 63/90/62 64/91/63 22/22/22 
f 22/22/22 24/24/24 63/90/62 
f 65/92/64 66/93/65 14/14/14 
f 14/14/14 13/13/13 65/92/64 
f 67/94/66 18/18/18 17/17/17 
f 17/17/17 68/95/67 67/94/66 
f 10/10/10 12/12/12 67/94/66 
f 67/94/66 68/95/67 10/10/10 
f 6/6/6 64/91/63 63/90/62 
f 63/90/62 4/4/4 6/6/6 
f 1/1/1 3/3/3 61/88/60 
f 61/88/60 62/89/61 1/1/1 
f 9/9/9 66/93/65 65/92/64 
f 65/92/64 7/7/7 9/9/9 
f 27/27/27 26/26/26 69/96/68 
f 69/96/68 70/97/69 27/27/27 
f 70/97/69 69/96/68 29/29/29 
f 29/29/29 32/32/32 70/97/69 
f 35/35/35 71/98/70 72/99/71 
f 72/99/71 36/36/36 35/35/35 
f 71/98/70 37/37/37 40/40/40 
f 40/40/40 72/99/71 71/98/70 
f 72/99/71 40/40/40 18/48/18 
f 18/48/18 67/100/66 72/99/71 
f 70/97/69 65/101/64 13/46/13 
f 13/46/13 27/27/27 70/97/69 
f 69/96/68 26/26/26 19/50/19 
f 19/50/19 61/102/60 69/96/68 
f 24/55/24 37/37/37 71/98/70 
f 71/98/70 63/103/62 24/55/24 
f 72/99/71 67/100/66 12/43/12 
f 12/43/12 36/36/36 72/99/71 
f 71/98/70 35/35/35 4/54/4 
f 4/54/4 63/103/62 71/98/70 
f 3/51/3 29/29/29 69/96/68 
f 69/96/68 61/102/60 3/51/3 
f 70/97/69 32/32/32 7/42/7 
f 7/42/7 65/101/64 70/97/69 
f 73/104/72 46/62/46 14/14/14 
f 14/14/14 66/93/65 73/104/72 
f 21/21/21 49/65/49 74/105/73 
f 74/105/73 62/89/61 21/21/21 
f 73/104/72 68/95/67 17/17/17 
f 17/17/17 46/62/46 73/104/72 
f 74/105/73 49/65/49 22/22/22 
f 22/22/22 64/91/63 74/105/73 
f 74/105/73 64/91/63 6/6/6 
f 6/6/6 41/57/41 74/105/73 
f 74/105/73 41/57/41 1/1/1 
f 1/1/1 62/89/61 74/105/73 
f 9/9/9 75/106/74 73/104/72 
f 73/104/72 66/93/65 9/9/9 
f 73/104/72 75/106/74 10/10/10 
f 10/10/10 68/95/67 73/104/72 
f 50/107/75 54/108/54 11/109/11 
f 75/106/74 50/66/50 10/10/10 
f 75/106/74 54/110/76 50/66/50 
f 54/111/54 45/112/77 44/113/78 
f 75/106/74 45/61/45 54/110/79 
f 75/106/74 43/59/43 45/61/45 
f 9/9/9 43/59/43 75/106/74 
f 9/9/9 8/8/8 44/60/44 
f 44/60/44 43/59/43 9/9/9 
f 54/111/54 44/113/78 8/114/8 
f 23/115/23 76/116/80 60/87/59 
f 60/87/59 38/70/38 23/115/23 
f 20/117/20 25/71/25 56/83/56 
f 56/83/56 77/118/81 20/117/20 
f 78/119/82 55/82/55 79/120/83 
f 78/119/82 79/120/83 80/121/84 
f 48/122/48 81/123/85 76/124/80 
f 76/124/80 23/115/23 48/122/48 
f 77/125/81 81/123/85 48/122/48 
f 48/122/48 20/117/20 77/125/81 
f 60/87/59 76/116/80 82/126/86 
f 82/126/86 83/127/87 60/87/59 
f 56/83/56 84/128/88 85/129/89 
f 85/129/89 77/118/81 56/83/56 
f 79/120/83 86/130/90 87/131/90 
f 87/131/90 80/121/84 79/120/83 
f 78/119/82 80/121/84 87/131/91 
f 87/131/91 88/132/91 78/119/82 
f 86/133/92 88/134/93 87/135/94 
f 86/133/92 81/123/85 88/134/93 
f 60/87/59 79/120/83 55/82/55 
f 79/120/83 83/127/87 82/126/95 
f 82/126/95 86/130/95 79/120/83 
f 76/124/80 86/133/92 82/136/96 
f 85/137/97 88/134/93 77/125/81 
f 85/129/98 84/128/88 78/119/82 
f 78/119/82 88/132/98 85/129/98 
f 56/83/56 78/119/82 84/128/88 
f 83/127/87 79/120/83 60/87/59 
f 55/82/55 78/119/82 56/83/56 
f 81/123/85 86/133/92 76/124/80 
f 77/125/81 88/134/93 81/123/85 
f 89/138/99 30/139/30 2/140/2 
f 59/141/100 89/138/99 2/140/2 
f 42/142/42 59/141/100 2/140/2 
f 57/143/101 59/141/100 42/142/42 
f 34/144/34 57/143/101 42/142/42 
f 5/145/5 34/144/34 42/142/42 
f 57/143/101 34/144/34 33/80/33 
f 90/146/102 57/143/101 33/80/33 
f 53/73/53 90/146/102 33/80/33 
f 89/138/99 90/146/102 53/73/53 
f 30/139/30 89/138/99 53/73/53 
f 31/76/31 30/139/30 53/73/53 
s 13
f 89/147/103 59/86/58 58/85/58 
s 15
f 90/148/104 58/149/104 57/150/105 
f 89/151/106 58/149/104 90/148/104 
s 16
f 91/152/107 92/153/108 93/154/109 
f 93/154/109 94/155/110 91/152/107 
f 95/156/111 96/157/112 93/154/109 
f 93/154/109 92/153/108 95/156/111 
f 93/154/109 96/157/112 97/158/113 
f 97/158/113 98/159/114 93/154/109 
f 93/154/109 98/159/114 99/160/115 
f 99/160/115 94/155/110 93/154/109 
f 99/160/115 98/159/114 100/161/116 
f 100/161/116 101/162/117 99/160/115 
f 97/158/113 102/163/118 100/161/116 
f 100/161/116 98/159/114 97/158/113 
f 100/161/116 102/163/118 103/164/119 
f 103/164/119 104/165/120 100/161/116 
f 100/161/116 104/165/120 105/166/121 
f 105/166/121 101/162/117 100/161/116 
f 105/166/121 104/165/120 106/167/122 
f 106/167/122 107/168/123 105/166/121 
f 103/164/119 108/169/124 106/167/122 
f 106/167/122 104/165/120 103/164/119 
f 106/167/122 108/169/124 109/170/125 
f 109/170/125 110/171/126 106/167/122 
f 106/167/122 110/171/126 111/172/127 
f 111/172/127 107/168/123 106/167/122 
f 111/173/127 110/174/126 112/175/128 
f 112/175/128 113/176/129 111/173/127 
f 109/177/125 114/178/130 112/175/128 
f 112/175/128 110/174/126 109/177/125 
f 112/175/128 114/178/130 95/156/111 
f 95/156/111 92/153/108 112/175/128 
f 112/175/128 92/153/108 91/152/107 
f 91/152/107 113/176/129 112/175/128 
f 95/179/111 114/180/130 115/181/131 
f 115/181/131 96/182/112 95/179/111 
f 109/183/125 108/184/124 115/181/131 
f 115/181/131 114/180/130 109/183/125 
f 115/181/131 108/184/124 103/185/119 
f 103/185/119 102/186/118 115/181/131 
f 115/181/131 102/186/118 97/187/113 
f 97/187/113 96/182/112 115/181/131 
f 111/188/127 113/189/129 116/190/132 
f 116/190/132 107/191/123 111/188/127 
f 91/192/107 94/193/110 116/190/132 
f 116/190/132 113/189/129 91/192/107 
f 116/190/132 94/193/110 99/194/115 
f 99/194/115 101/195/117 116/190/132 
f 116/190/132 101/195/117 105/196/121 
f 105/196/121 107/191/123 116/190/132 
s 17
f 117/197/133 118/198/134 119/199/135 
f 119/199/135 120/200/136 117/197/133 
f 121/201/137 122/202/138 119/199/135 
f 119/199/135 118/198/134 121/201/137 
f 119/199/135 122/202/138 123/203/139 
f 123/203/139 124/204/140 119/199/135 
f 119/199/135 124/204/140 125/205/141 
f 125/205/141 120/200/136 119/199/135 
f 125/205/141 124/204/140 126/206/142 
f 126/206/142 127/207/143 125/205/141 
f 123/203/139 128/208/144 126/206/142 
f 126/206/142 124/204/140 123/203/139 
f 126/206/142 128/208/144 129/209/145 
f 129/209/145 130/210/146 126/206/142 
f 126/206/142 130/210/146 131/211/147 
f 131/211/147 127/207/143 126/206/142 
f 131/211/147 130/210/146 132/212/148 
f 132/212/148 133/213/149 131/211/147 
f 129/209/145 134/214/150 132/212/148 
f 132/212/148 130/210/146 129/209/145 
f 132/212/148 134/214/150 135/215/151 
f 135/215/151 136/216/152 132/212/148 
f 132/212/148 136/216/152 137/217/153 
f 137/217/153 133/213/149 132/212/148 
f 137/218/153 136/219/152 138/220/154 
f 138/220/154 139/221/155 137/218/153 
f 135/222/151 140/223/156 138/220/154 
f 138/220/154 136/219/152 135/222/151 
f 138/220/154 140/223/156 121/201/137 
f 121/201/137 118/198/134 138/220/154 
f 138/220/154 118/198/134 117/197/133 
f 117/197/133 139/221/155 138/220/154 
f 121/224/137 140/225/156 141/226/157 
f 141/226/157 122/227/138 121/224/137 
f 135/228/151 134/229/150 141/226/157 
f 141/226/157 140/225/156 135/228/151 
f 141/226/157 134/229/150 129/230/145 
f 129/230/145 128/231/144 141/226/157 
f 141/226/157 128/231/144 123/232/139 
f 123/232/139 122/227/138 141/226/157 
f 137/233/153 139/234/155 142/235/158 
f 142/235/158 133/236/149 137/233/153 
f 117/237/133 120/238/136 142/235/158 
f 142/235/158 139/234/155 117/237/133 
f 142/235/158 120/238/136 125/239/141 
f 125/239/141 127/240/143 142/235/158 
f 142/235/158 127/240/143 131/241/147 
f 131/241/147 133/236/149 142/235/158 
# 272 faces

