# 3ds Max Wavefront OBJ Exporter v0.99 - (c)2007 guruware
# File Created: 07.06.2021 15:16:56

mtllib huevo.mtl

#
# object GeoSphere001
#

v  0.0497 29.0386 0.2231
v  9.0686 25.2785 0.2231
v  2.8367 25.2785 -8.3543
v  17.1452 13.8843 0.2231
v  12.9411 16.1019 -9.1430
v  5.3325 13.8843 -16.0357
v  -7.2468 25.2785 -5.0780
v  -4.8744 16.1019 -14.9316
v  -13.7809 13.8843 -9.8254
v  -7.2468 25.2785 5.5243
v  -15.8849 16.1019 0.2231
v  -13.7809 13.8843 10.2716
v  2.8367 25.2785 8.8006
v  -4.8744 16.1019 15.3778
v  5.3325 13.8843 16.4820
v  12.9411 16.1019 9.5893
v  20.2923 1.2538 6.8004
v  20.2923 1.2538 -6.3541
v  17.0221 -11.3768 12.5543
v  20.3262 -13.5943 0.2231
v  17.0221 -11.3768 -12.1081
v  12.5603 1.2538 -16.9963
v  0.0497 1.2538 -21.0612
v  6.3155 -13.5943 -19.0610
v  -6.4332 -11.3768 -19.7291
v  -12.4609 1.2538 -16.9963
v  -20.1929 1.2538 -6.3541
v  -16.3543 -13.5943 -11.6951
v  -20.9294 -11.3768 0.2231
v  -20.1929 1.2538 6.8004
v  -12.4609 1.2538 17.4425
v  -16.3543 -13.5943 12.1414
v  -6.4332 -11.3768 20.1754
v  0.0497 1.2538 21.5075
v  12.5603 1.2538 17.4425
v  6.3155 -13.5943 19.5072
v  0.0497 -26.2493 0.2231
v  -4.0790 -22.7710 -12.4837
v  10.8588 -22.7710 -7.6302
v  -13.3111 -22.7710 0.2231
v  -4.0790 -22.7710 12.9300
v  10.8588 -22.7710 8.0764
# 42 vertices

vn 0.3706 0.8889 -0.2693
vn 0.7952 0.5637 -0.2235
vn 0.5891 0.6854 -0.4280
vn 0.4583 0.5637 -0.6872
vn -0.1416 0.8889 -0.4357
vn 0.0332 0.5637 -0.8253
vn -0.2250 0.6854 -0.6925
vn -0.5120 0.5637 -0.6482
vn -0.4581 0.8889 -0.0000
vn -0.7747 0.5637 -0.2866
vn -0.7281 0.6854 -0.0000
vn -0.7747 0.5637 0.2866
vn -0.1416 0.8889 0.4357
vn -0.5120 0.5637 0.6482
vn -0.2250 0.6854 0.6925
vn 0.0332 0.5637 0.8253
vn 0.3706 0.8889 0.2693
vn 0.4583 0.5637 0.6872
vn 0.5891 0.6854 0.4280
vn 0.7952 0.5637 0.2235
vn 0.9703 0.2418 -0.0000
vn 0.9532 -0.1206 0.2771
vn 1.0000 0.0023 -0.0000
vn 0.9532 -0.1206 -0.2771
vn 0.2998 0.2418 -0.9228
vn 0.5581 -0.1206 -0.8210
vn 0.3090 0.0023 -0.9511
vn 0.0310 -0.1206 -0.9922
vn -0.7850 0.2418 -0.5703
vn -0.6083 -0.1206 -0.7845
vn -0.8090 0.0023 -0.5878
vn -0.9341 -0.1206 -0.3361
vn -0.7850 0.2418 0.5703
vn -0.9341 -0.1206 0.3361
vn -0.8090 0.0023 0.5878
vn -0.6083 -0.1206 0.7845
vn 0.2998 0.2418 0.9228
vn 0.0310 -0.1206 0.9922
vn 0.3090 0.0023 0.9511
vn 0.5581 -0.1206 0.8210
vn 0.8076 0.0582 -0.5868
vn 0.5594 0.3763 -0.7386
vn 0.7770 0.2786 -0.5645
vn 0.8753 0.3763 -0.3038
vn -0.3085 0.0582 -0.9494
vn -0.5295 0.3763 -0.7603
vn -0.2968 0.2786 -0.9134
vn -0.0185 0.3763 -0.9263
vn -0.9983 0.0582 -0.0000
vn -0.8867 0.3763 0.2687
vn -0.9604 0.2786 -0.0000
vn -0.8867 0.3763 -0.2687
vn -0.3085 0.0582 0.9494
vn -0.0185 0.3763 0.9263
vn -0.2968 0.2786 0.9134
vn -0.5295 0.3763 0.7603
vn 0.8076 0.0582 0.5868
vn 0.8753 0.3763 0.3038
vn 0.7770 0.2786 0.5645
vn 0.5594 0.3763 0.7386
vn 0.0947 -0.9519 -0.2913
vn -0.0506 -0.5433 -0.8380
vn 0.2151 -0.7180 -0.6619
vn 0.5335 -0.5433 -0.6482
vn -0.2478 -0.9519 -0.1801
vn -0.8126 -0.5433 -0.2108
vn -0.5631 -0.7180 -0.4091
vn -0.4516 -0.5433 -0.7077
vn -0.2478 -0.9519 0.1801
vn -0.4516 -0.5433 0.7077
vn -0.5631 -0.7180 0.4091
vn -0.8126 -0.5433 0.2108
vn 0.0947 -0.9519 0.2913
vn 0.5335 -0.5433 0.6482
vn 0.2151 -0.7180 0.6619
vn -0.0506 -0.5433 0.8380
vn 0.3063 -0.9519 -0.0000
vn 0.7814 -0.5433 -0.3071
vn 0.6960 -0.7180 -0.0000
vn 0.7814 -0.5433 0.3071
# 80 vertex normals

vt 0.6000 0.9999 25.4137
vt 0.5000 0.8238 25.4137
vt 0.7000 0.8238 25.4137
vt 0.5000 0.6476 25.4137
vt 0.6000 0.6762 25.4137
vt 0.7000 0.6476 25.4137
vt 0.8000 0.9999 25.4137
vt 0.9000 0.8238 25.4137
vt 0.8000 0.6762 25.4137
vt 0.9000 0.6476 25.4137
vt 0.0000 0.9999 25.4137
vt -0.1000 0.8238 25.4137
vt 0.1000 0.8238 25.4137
vt -0.1000 0.6476 25.4137
vt 0.0000 0.6762 25.4137
vt 0.1000 0.6476 25.4137
vt 0.2000 0.9999 25.4137
vt 0.3000 0.8238 25.4137
vt 0.2000 0.6762 25.4137
vt 0.3000 0.6476 25.4137
vt 0.4000 0.9999 25.4137
vt 0.4000 0.6762 25.4137
vt 0.4500 0.5000 25.4137
vt 0.5500 0.5000 25.4137
vt 0.4000 0.3524 25.4137
vt 0.5000 0.3238 25.4137
vt 0.6000 0.3524 25.4137
vt 0.6500 0.5000 25.4137
vt 0.7500 0.5000 25.4137
vt 0.7000 0.3238 25.4137
vt 0.8000 0.3524 25.4137
vt 0.8500 0.5000 25.4137
vt 0.9500 0.5000 25.4137
vt 0.9000 0.3238 25.4137
vt -0.0500 0.5000 25.4137
vt -0.1000 0.3238 25.4137
vt 0.0000 0.3524 25.4137
vt 0.0500 0.5000 25.4137
vt 0.1500 0.5000 25.4137
vt 0.1000 0.3238 25.4137
vt 0.2000 0.3524 25.4137
vt 0.2500 0.5000 25.4137
vt 0.3500 0.5000 25.4137
vt 0.3000 0.3238 25.4137
vt 0.7000 0.0001 25.4137
vt 0.8000 0.1762 25.4137
vt 0.6000 0.1762 25.4137
vt -0.1000 0.0001 25.4137
vt 0.0000 0.1762 25.4137
vt -0.2000 0.1762 25.4137
vt 0.1000 0.0001 25.4137
vt 0.2000 0.1762 25.4137
vt 0.3000 0.0001 25.4137
vt 0.4000 0.1762 25.4137
vt 0.5000 0.0001 25.4137
# 55 texture coords

o GeoSphere001
g GeoSphere001
usemtl Material__25
s off
f 1/1/1 2/2/1 3/3/1 
f 2/2/2 4/4/2 5/5/2 
f 2/2/3 5/5/3 3/3/3 
f 3/3/4 5/5/4 6/6/4 
f 1/7/5 3/3/5 7/8/5 
f 3/3/6 6/6/6 8/9/6 
f 3/3/7 8/9/7 7/8/7 
f 7/8/8 8/9/8 9/10/8 
f 1/11/9 7/12/9 10/13/9 
f 7/12/10 9/14/10 11/15/10 
f 7/12/11 11/15/11 10/13/11 
f 10/13/12 11/15/12 12/16/12 
f 1/17/13 10/13/13 13/18/13 
f 10/13/14 12/16/14 14/19/14 
f 10/13/15 14/19/15 13/18/15 
f 13/18/16 14/19/16 15/20/16 
f 1/21/17 13/18/17 2/2/17 
f 13/18/18 15/20/18 16/22/18 
f 13/18/19 16/22/19 2/2/19 
f 2/2/20 16/22/20 4/4/20 
f 4/4/21 17/23/21 18/24/21 
f 17/23/22 19/25/22 20/26/22 
f 17/23/23 20/26/23 18/24/23 
f 18/24/24 20/26/24 21/27/24 
f 6/6/25 22/28/25 23/29/25 
f 22/28/26 21/27/26 24/30/26 
f 22/28/27 24/30/27 23/29/27 
f 23/29/28 24/30/28 25/31/28 
f 9/10/29 26/32/29 27/33/29 
f 26/32/30 25/31/30 28/34/30 
f 26/32/31 28/34/31 27/33/31 
f 27/35/32 28/36/32 29/37/32 
f 12/16/33 30/38/33 31/39/33 
f 30/38/34 29/37/34 32/40/34 
f 30/38/35 32/40/35 31/39/35 
f 31/39/36 32/40/36 33/41/36 
f 15/20/37 34/42/37 35/43/37 
f 34/42/38 33/41/38 36/44/38 
f 34/42/39 36/44/39 35/43/39 
f 35/43/40 36/44/40 19/25/40 
f 21/27/41 22/28/41 18/24/41 
f 22/28/42 6/6/42 5/5/42 
f 22/28/43 5/5/43 18/24/43 
f 18/24/44 5/5/44 4/4/44 
f 25/31/45 26/32/45 23/29/45 
f 26/32/46 9/10/46 8/9/46 
f 26/32/47 8/9/47 23/29/47 
f 23/29/48 8/9/48 6/6/48 
f 29/37/49 30/38/49 27/35/49 
f 30/38/50 12/16/50 11/15/50 
f 30/38/51 11/15/51 27/35/51 
f 27/35/52 11/15/52 9/14/52 
f 33/41/53 34/42/53 31/39/53 
f 34/42/54 15/20/54 14/19/54 
f 34/42/55 14/19/55 31/39/55 
f 31/39/56 14/19/56 12/16/56 
f 19/25/57 17/23/57 35/43/57 
f 17/23/58 4/4/58 16/22/58 
f 17/23/59 16/22/59 35/43/59 
f 35/43/60 16/22/60 15/20/60 
f 37/45/61 38/46/61 39/47/61 
f 38/46/62 25/31/62 24/30/62 
f 38/46/63 24/30/63 39/47/63 
f 39/47/64 24/30/64 21/27/64 
f 37/48/65 40/49/65 38/50/65 
f 40/49/66 29/37/66 28/36/66 
f 40/49/67 28/36/67 38/50/67 
f 38/46/68 28/34/68 25/31/68 
f 37/51/69 41/52/69 40/49/69 
f 41/52/70 33/41/70 32/40/70 
f 41/52/71 32/40/71 40/49/71 
f 40/49/72 32/40/72 29/37/72 
f 37/53/73 42/54/73 41/52/73 
f 42/54/74 19/25/74 36/44/74 
f 42/54/75 36/44/75 41/52/75 
f 41/52/76 36/44/76 33/41/76 
f 37/55/77 39/47/77 42/54/77 
f 39/47/78 21/27/78 20/26/78 
f 39/47/79 20/26/79 42/54/79 
f 42/54/80 20/26/80 19/25/80 
# 80 faces

