# 3ds Max Wavefront OBJ Exporter v0.99 - (c)2007 guruware
# File Created: 07.06.2021 15:18:47

mtllib piedra.mtl

#
# object node_id4
#

v  -6.9062 -2.2814 12.2974
v  -6.5850 -0.1043 11.7970
v  -5.2058 6.4263 4.3870
v  -6.8820 -3.6359 11.6818
v  -7.0621 -5.1116 9.3082
v  -4.5434 -5.9285 9.5979
v  -6.2725 1.6847 10.7375
v  -5.8570 1.3185 11.4681
v  -6.1011 -4.5149 -2.5568
v  -5.9326 -4.5723 -2.5013
v  -0.6494 -0.9014 11.9877
v  -4.6256 6.8109 4.1020
v  0.6353 6.9338 6.3331
v  -2.3533 2.6324 11.1670
v  -5.1150 6.2739 2.9152
v  -5.0833 2.9852 -3.2651
v  -4.5583 2.9606 -3.1127
v  9.2952 2.2829 0.9121
v  9.8838 2.6600 1.8631
v  10.0214 2.2429 1.1237
v  9.3653 -1.3927 4.6711
v  9.9966 1.1517 1.2618
v  4.5146 -3.0261 9.3258
v  1.4194 -7.5849 7.0510
v  -6.7182 -2.5367 12.3568
v  4.6248 -8.1206 0.9691
v  4.8848 -8.2076 1.0545
v  -7.0278 -3.6892 11.5103
v  9.8868 -2.8335 1.7606
# 29 vertices

vn -0.9891 0.1299 -0.0696
vn -0.3172 -0.7944 0.5180
vn -0.9888 0.1333 -0.0666
vn -0.2643 0.7935 0.5481
vn -0.3002 -0.9511 -0.0722
vn 0.1974 -0.5414 0.8172
vn -0.2569 0.7949 0.5497
vn -0.2522 0.7955 0.5510
vn -0.2506 0.7950 0.5524
vn -0.6454 0.4696 0.6025
vn -0.9886 0.1305 -0.0745
vn 0.1661 0.8709 -0.4626
vn 0.1756 0.8692 -0.4622
vn 0.1769 0.8687 -0.4627
vn 0.1813 0.8706 -0.4574
vn 0.9832 0.0008 0.1826
vn 0.5466 0.4286 0.7194
vn 0.5469 0.4273 0.7199
vn 0.1982 -0.5419 0.8167
vn -0.0012 0.2241 0.9746
vn -0.0015 0.2256 0.9742
vn -0.2953 -0.9527 -0.0717
vn 0.1940 -0.5342 0.8228
vn 0.5461 0.4295 0.7192
vn -0.2962 -0.9524 -0.0728
vn 0.5451 0.4300 0.7197
vn -0.6718 -0.3164 0.6698
vn -0.3186 -0.7939 0.5178
vn -0.6541 -0.3227 0.6841
vn 0.6313 -0.6442 0.4318
vn -0.9907 0.1205 -0.0624
vn -0.9891 0.1290 -0.0706
vn -0.5886 0.7996 -0.1191
vn 0.2710 -0.1269 -0.9542
vn 0.9839 -0.0048 0.1786
vn -0.9891 0.1276 -0.0735
vn -0.0010 0.2258 0.9742
# 37 vertex normals

vt 0.6559 0.4948 0.0000
vt 0.5935 0.4751 0.0000
vt 0.4149 0.2320 0.0000
vt 0.6582 0.4948 0.0000
vt 0.6703 0.5645 0.0000
vt 0.5950 0.5804 0.0000
vt 0.5431 0.4387 0.0000
vt 0.2076 0.0000 0.0000
vt 0.2203 0.0156 0.0000
vt 0.0306 0.0001 0.0000
vt 0.7522 0.9247 0.0000
vt 0.7468 0.9247 0.0000
vt 0.2592 0.1874 0.0000
vt 0.3638 0.0102 0.0000
vt 0.4023 0.0912 0.0000
vt 0.0152 0.0156 0.0000
vt 0.0000 0.1790 0.0000
vt 0.1647 0.1157 0.0000
vt 0.2654 0.0010 0.0000
vt 0.4215 0.1864 0.0000
vt 0.5259 0.0000 0.0000
vt 0.7982 0.4438 0.0000
vt 0.7648 0.4197 0.0000
vt 0.9950 0.4917 0.0000
vt 0.7424 0.2435 0.0000
vt 0.9950 0.4746 0.0000
vt 0.9949 0.0253 0.0000
vt 0.9703 0.0000 0.0000
vt 0.9950 0.0017 0.0000
vt 0.9774 0.8324 0.0000
vt 0.9050 0.6995 0.0000
vt 0.9985 0.7872 0.0000
vt 1.0000 0.8214 0.0000
vt 0.0438 0.4791 0.0000
vt 0.1764 0.4878 0.0000
vt 0.2754 0.3534 0.0000
vt 0.4023 0.2794 0.0000
vt 0.3304 0.0032 0.0000
vt 0.3369 0.0103 0.0000
vt 0.4467 0.7137 0.0000
vt 0.4106 0.9247 0.0000
vt 0.4023 0.9247 0.0000
vt 0.3649 0.0058 0.0000
vt 0.6630 0.4986 0.0000
vt 0.7522 0.6347 0.0000
vt 0.8112 0.4974 0.0000
vt 1.0000 0.4948 0.0000
vt 0.9933 0.6623 0.0000
vt 0.6979 0.4729 0.0000
vt 0.7424 0.4070 0.0000
vt 0.4023 0.2212 0.0000
vt 0.2784 0.9931 0.0000
vt 0.1628 1.0000 0.0000
vt 0.0000 0.8524 0.0000
vt 0.0022 0.8438 0.0000
vt 0.3101 0.9911 0.0000
vt 0.0900 0.4934 0.0000
vt 0.3102 0.9675 0.0000
vt 0.0914 0.4878 0.0000
vt 0.3102 0.5181 0.0000
vt 0.3102 0.5011 0.0000
vt 0.7424 0.0362 0.0000
# 62 texture coords

o node_id4
g node_id4
usemtl Material__25
s off
f 1/1/1 2/2/1 3/3/1 
f 4/4/2 5/5/2 6/6/2 
f 2/2/3 7/7/3 3/3/3 
f 7/8/4 8/9/4 3/10/4 
f 5/5/5 9/11/5 10/12/5 
f 10/12/5 6/6/5 5/5/5 
f 11/13/6 4/14/6 6/15/6 
f 8/9/7 12/16/7 3/10/7 
f 8/9/8 13/17/8 12/16/8 
f 8/9/9 14/18/9 13/17/9 
f 7/8/10 2/19/10 8/9/10 
f 3/3/11 15/20/11 16/21/11 
f 15/22/12 12/23/12 16/24/12 
f 12/23/13 13/25/13 17/26/13 
f 17/26/13 16/24/13 12/23/13 
f 13/25/14 18/27/14 17/26/14 
f 13/25/15 19/28/15 20/29/15 
f 20/29/15 18/27/15 13/25/15 
f 19/30/16 21/31/16 22/32/16 
f 22/32/16 20/33/16 19/30/16 
f 19/34/17 11/13/17 21/35/17 
f 11/13/18 23/36/18 21/35/18 
f 23/36/19 11/13/19 6/15/19 
f 6/15/19 24/37/19 23/36/19 
f 2/19/20 1/38/20 11/13/20 
f 1/38/21 25/39/21 11/13/21 
f 24/40/22 6/6/22 26/41/22 
f 26/41/22 27/42/22 24/40/22 
f 25/39/23 4/14/23 11/13/23 
f 19/34/24 13/17/24 11/13/24 
f 6/6/25 10/12/25 26/41/25 
f 13/17/26 14/18/26 11/13/26 
f 1/38/27 28/43/27 4/14/27 
f 28/44/28 5/5/28 4/4/28 
f 25/39/29 1/38/29 4/14/29 
f 21/31/30 23/45/30 24/46/30 
f 24/46/30 27/47/30 21/31/30 
f 21/31/30 27/47/30 29/48/30 
f 28/49/31 1/1/31 5/50/31 
f 1/1/32 3/3/32 5/50/32 
f 12/51/33 15/20/33 3/3/33 
f 22/52/34 29/53/34 27/54/34 
f 27/54/34 26/55/34 22/52/34 
f 22/52/34 26/55/34 20/56/34 
f 26/55/34 10/57/34 20/56/34 
f 20/56/34 10/57/34 18/58/34 
f 10/57/34 9/59/34 18/58/34 
f 18/58/34 9/59/34 17/60/34 
f 9/59/34 16/61/34 17/60/34 
f 29/48/35 22/32/35 21/31/35 
f 5/50/36 3/3/36 16/21/36 
f 16/21/36 9/62/36 5/50/36 
f 8/9/37 2/19/37 11/13/37 
f 11/13/37 14/18/37 8/9/37 
# 54 faces

